<svg
  xmlns="http://www.w3.org/2000/svg"
  width="512"
  height="512"
  viewBox="0 0 512 512">
  <path
    d="m 64,135.683 0,236.203 114.486,0 c 10.581,0 20.917,-1.336 30.867,-3.973 10.062,-2.646 19.053,-6.718 26.873,-12.252 7.76,-5.489 14.055,-12.61 18.684,-21.391 4.579,-8.673 6.875,-18.989 6.875,-30.963 0,-14.772 -3.51,-27.382 -10.686,-37.912 -7.138,-10.467 -17.903,-17.822 -32.443,-21.992 10.679,-5.059 18.662,-11.561 24.104,-19.48 5.395,-7.947 8.094,-17.876 8.094,-29.77 0,-10.996 -1.805,-20.288 -5.402,-27.715 -3.69,-7.534 -8.84,-13.517 -15.42,-18.02 -6.681,-4.494 -14.589,-7.776 -23.855,-9.74 -9.323,-2.018 -19.515,-2.996 -30.818,-2.996 l -111.357,0 z m 250.678,15.842 0,23.309 95.746,0 0,-23.309 -95.746,0 z m -198.668,24.395 48.654,0 c 4.597,0 9.092,0.323 13.373,1.166 4.366,0.744 8.123,2.135 11.451,4.145 3.353,1.928 6.007,4.69 8.016,8.215 1.934,3.525 2.898,8.064 2.898,13.563 0,9.902 -2.899,17.121 -8.883,21.48 -6.044,4.44 -13.67,6.629 -22.889,6.629 l -52.621,0 0,-55.197 z m 248.721,20.1 c -13.103,0 -24.938,2.332 -35.67,6.969 -10.728,4.646 -19.944,11.005 -27.711,19.068 -7.754,8.018 -13.65,17.581 -17.914,28.658 -4.18,11.041 -6.316,22.987 -6.316,35.777 0,13.23 2.061,25.427 6.143,36.459 4.127,11.077 9.916,20.514 17.367,28.496 7.649,7.947 16.74,14.046 27.619,18.387 10.889,4.305 23.008,6.484 36.482,6.484 19.329,0 35.919,-4.43 49.523,-13.318 13.759,-8.844 23.848,-23.545 30.498,-44.129 l -41.369,0 c -1.601,5.292 -5.747,10.396 -12.551,15.158 -6.87,4.781 -15.058,7.174 -24.535,7.174 -13.173,0 -23.342,-3.462 -30.377,-10.332 -7.06,-6.87 -11.631,-19.67 -11.631,-33.195 l 123.412,0 c 0.883,-13.265 -0.191,-25.938 -3.268,-38.064 -3.101,-12.162 -8.055,-22.988 -15.031,-32.469 -6.968,-9.489 -15.844,-17.067 -26.67,-22.664 -10.861,-5.669 -23.532,-8.459 -38.002,-8.459 z m -1.412,35.473 c 11.533,0 20.996,3.346 26.574,9.525 5.606,6.225 9.705,15.087 10.826,27.061 l -76.43,0 c 0.217,-3.337 0.934,-7.112 2.146,-11.273 1.198,-4.269 3.266,-8.262 6.297,-12.047 3.049,-3.722 7.035,-6.888 11.895,-9.426 4.975,-2.574 11.187,-3.84 18.691,-3.84 z m -247.309,35.125 56.537,0 c 11.194,0 20.294,2.573 27.119,7.748 6.814,5.247 10.24,13.893 10.24,26.064 0,6.216 -1.009,11.355 -3.111,15.311 -2.095,3.991 -4.974,7.141 -8.453,9.428 -3.476,2.386 -7.599,3.991 -12.252,5.014 -4.579,1.022 -9.449,1.479 -14.586,1.479 l -55.494,0 0,-65.043 z"
    style="fill:#ffffff"/>
</svg>
