<?xml version="1.0" encoding="UTF-8" standalone="no"?>
<svg
  xmlns="http://www.w3.org/2000/svg"
  version="1.1"
  width="512"
  height="512"
  viewBox="0 0 512 512">
  <path
    d="m 224,104 -48,48 -112,0 0,256 384,0 0,-256 -112,0 -48,-48 -64,0 z m -128,16 0,16 48,0 0,-16 -48,0 z m 160,44 A 112,112 0 0 1 368,276 112,112 0 0 1 256,388 112,112 0 0 1 144,276 112,112 0 0 1 256,164 Z m 128,4 a 16,16 0 0 1 16,16 16,16 0 0 1 -16,16 16,16 0 0 1 -16,-16 16,16 0 0 1 16,-16 z m -128,28 a 80,80 0 0 0 -80,80 80,80 0 0 0 80,80 80,80 0 0 0 80,-80 80,80 0 0 0 -80,-80 z"
    style="fill:#ffffff"/>
</svg>
