<svg
  xmlns="http://www.w3.org/2000/svg"
  width="512"
  height="512"
  viewBox="0 0 512 512">
  <path
    d="M 256 64 C 150.137 64 64 150.106 64 255.969 C 64 361.831 150.137 448 256 448 C 361.863 448 447.969 361.831 447.969 255.969 C 447.969 150.106 361.863 64 256 64 z M 256 93.719 C 345.796 93.719 418.25 166.173 418.25 255.969 C 418.25 345.765 345.796 418.281 256 418.281 C 166.204 418.281 93.719 345.765 93.719 255.969 C 93.719 166.173 166.204 93.719 256 93.719 z M 240 112 L 240 265.219 L 331.125 317.844 L 347.125 290.156 L 272 246.781 L 272 112 L 240 112 z "
    style="fill:#ffffff"/>
</svg>
