<?xml version="1.0" encoding="UTF-8" standalone="no"?>
<svg
  xmlns="http://www.w3.org/2000/svg"
  version="1.1"
  width="512"
  height="512"
  viewBox="0 0 512 512">
  <path
    d="M 256 64 A 192 192 0 0 0 64 256 A 192 192 0 0 0 256 448 A 192 192 0 0 0 448 256 A 192 192 0 0 0 256 64 z M 369.13672 142.86328 L 278.62695 278.62695 L 142.86328 369.13672 L 233.37305 233.37305 L 369.13672 142.86328 z M 256 240 A 16 16 0 0 0 240 256 A 16 16 0 0 0 256 272 A 16 16 0 0 0 272 256 A 16 16 0 0 0 256 240 z"
    style="fill:#ffffff"/>
</svg>
