<svg
  xmlns="http://www.w3.org/2000/svg"
  width="512"
  height="512"
  viewBox="0 0 512 512">
  <path
    d="m 112,64 c -24,0 -48,24 -48,48 0,24 24,48 48,48 24,0 36,-12 41.563,-24 L 448,136 448,88 153.563,88 C 148,76 136,64 112,64 z m 0,24 c 12,0 24,12 24,24 0,12 -12,24 -24,24 -12,0 -24,-12 -24,-24 0,-12 12,-24 24,-24 z m 144,120 c -24,0 -36,12 -41.594,24 L 64,232 l 0,48 150.406,0 C 220,292 232,304 256,304 c 24,0 36,-12 41.563,-24 L 448,280 l 0,-48 -150.438,0 C 292,220 280,208 256,208 z m 0,24 c 12,0 24,12 24,24 0,12 -12,24 -24,24 -12,0 -24,-12 -24,-24 0,-12 12,-24 24,-24 z m 144,120 c -17.766,0 -33.294,9.653 -41.594,24 L 64,376 l 0,48 294.406,0 c 8.3,14.346 23.827,24 41.594,24 26.51,0 48,-21.49 48,-48 0,-26.51 -21.49,-48 -48,-48 z m 0,24 c 13.255,0 24,10.745 24,24 0,13.255 -10.745,24 -24,24 -13.255,0 -24,-10.745 -24,-24 0,-13.255 10.745,-24 24,-24 z"
    style="fill:#ffffff"/>
</svg>
