<svg
  xmlns="http://www.w3.org/2000/svg"
  width="512"
  height="512"
  viewBox="0 0 512 512">
  <path
    d="m 256,64 c -32,0 -64,32 -64,64 0,26.615 22.139,53.21 48,61.414 l 0,2.586 -112,0 -32,256 320,0 -32,-256 -112,0 0,-2.586 C 297.861,181.21 320,154.615 320,128 320,96 288,64 256,64 Z m 0,16 c 24,0 48,24 48,48 0,22.232 -15.134,39.406 -33.381,45.545 C 268.136,167.912 262.156,164.008 256,164 c -6.029,0.009 -11.899,3.743 -14.461,9.201 C 223.221,166.208 208,147.111 208,128 c 0,-24 24,-48 48,-48 z"
    style="fill:#ffffff"/>
</svg>
