<svg
  xmlns="http://www.w3.org/2000/svg"
  width="512"
  height="512"
  viewBox="0 0 512 512">
  <path
    d="m 256,64 -29.538,59.077 59.077,0 z m -139.038,52.962 20.885,62.661 41.776,-41.776 z m 278.077,0 -62.661,20.885 41.776,41.776 z M 256,137.846 c -59.077,4e-5 -118.154,59.077 -118.154,118.154 0,59.077 59.077,118.154 118.154,118.154 59.077,4e-5 118.154,-59.077 118.154,-118.154 0,-59.077 -59.077,-118.154 -118.154,-118.154 z m -132.923,88.615 -59.077,29.538 59.077,29.538 z m 265.846,0 0,59.077 L 448,256 Z m -251.077,105.916 -20.885,62.661 62.661,-20.885 z m 236.308,0 -41.776,41.776 62.661,20.885 z M 226.462,388.923 256,448 285.538,388.923 Z"
    style="fill:#ffffff"/>
</svg>
