<svg
  xmlns="http://www.w3.org/2000/svg"
  width="512"
  height="512"
  viewBox="0 0 512 512">
  <path
    d="m 420.025,354.779 -99.601,-98.538 99.597,-98.538 v 197.076 z m -311.065,18.713 99.78,-98.445 4.263,4.032 c 23.561,22.206 61.001,22.206 83.556,0 l 4.294,-4.213 100.24,98.626 H 108.959 z m -17.9,-215.789 99.449,98.538 -99.628,98.538 0.179,-197.076 z M 400.909,138.897 278.386,259.911 c -12.449,12.397 -34.732,12.124 -47.547,-0.481 L 109.143,138.897 H 400.909 z M 64,112 c 0,11.284 0,276.627 0,288 11.599,0 372.401,0 384,0 0,-11.373 0,-276.72 0,-288 -11.599,0 -372.401,0 -384,0 z"
    style="fill:#ffffff"/>
</svg>
