<svg
  xmlns="http://www.w3.org/2000/svg"
  width="512"
  height="512"
  viewBox="0 0 512 512">
  <path
    d="M 350.912,71.615 C 340.532,69.394 330.697,67.581 321.405,66.176 312.113,64.771 302.005,64.046 291.082,64 c -31.819,0.136 -54.799,7.479 -68.941,22.028 -14.142,14.55 -21.077,35.49 -20.804,62.822 l 0,39.705 -40.249,0 0,64.181 40.249,0 0,195.263 78.323,0 0,-195.263 57.11,0 5.439,-64.181 -62.55,0 0,-31.003 c -0.453,-8.793 0.861,-15.682 3.943,-20.669 3.082,-4.986 10.651,-7.524 22.708,-7.615 4.816,0.023 10.413,0.386 16.793,1.088 6.379,0.703 12.385,1.609 18.017,2.72 z"
    style="fill:#ffffff"/>
</svg>
