<?xml version="1.0" encoding="UTF-8" standalone="no"?>
<svg
viewbox="0 0 512 512"
width="512"
height="512"
version="1.1"
xmlns="http://www.w3.org/2000/svg">
<path
d="M 382.54959,10.15295 C 368.70984,7.19218 355.59557,4.77483 343.20676,2.90083 330.81751,1.0279 317.34067,0.06093 302.7762,0 260.35113,0.1818 229.71091,9.97215 210.8555,29.37108 191.99993,48.77096 182.75346,76.69165 183.11617,113.13314 l 0,52.94048 -53.66576,0 0,85.57512 53.66576,0 0,260.35126 104.43058,0 0,-260.35126 76.14728,0 7.25217,-85.57512 -83.39945,0 0,-41.33709 c -0.60451,-11.72386 1.14806,-20.90985 5.2578,-27.55807 4.10934,-6.64736 14.20186,-10.03168 30.27761,-10.15296 6.42093,0.0302 13.88457,0.51411 22.39092,1.4504 8.5059,0.93715 16.51345,2.14585 24.02267,3.62606 z"
style="fill:#ffffff"/>
</svg>
