<?xml version="1.0" encoding="UTF-8" standalone="no"?>
<svg
  xmlns="http://www.w3.org/2000/svg"
  version="1.1"
  width="512"
  height="512"
  viewBox="0 0 512 512">
  <path
    d="M 64 64 L 64 140.8125 A 307.2 307.2 0 0 1 371.1875 448 L 448 448 A 384 384 0 0 0 64 64 z M 64 194 L 64 268.4375 A 179.55172 179.55172 0 0 1 243.5625 448 L 318 448 A 254 254 0 0 0 64 194 z M 115.125 344 C 114.51414 344.01139 113.92284 344.02846 113.3125 344.0625 C 102.26779 344.62119 91.352419 348.84337 82.875 355.875 C 78.182074 360.03467 73.866833 364.62104 70.84375 370.15625 C 64.365511 381.4793 62.325957 395.29465 65.40625 408 C 67.27997 415.76401 70.889096 423.20737 76.03125 429.28125 C 80.234028 434.03242 84.908666 438.32947 90.53125 441.34375 C 101.84459 447.69762 115.59402 449.66585 128.21875 446.5625 C 135.90256 444.66216 143.26336 441.06847 149.28125 435.96875 C 154.0325 431.76605 158.32941 427.09124 161.34375 421.46875 C 167.69774 410.1556 169.66587 396.40576 166.5625 383.78125 C 164.6621 376.09757 161.06857 368.73655 155.96875 362.71875 C 151.76597 357.96759 147.09134 353.67054 141.46875 350.65625 C 133.47753 346.20817 124.28791 343.82916 115.125 344 z"
    style="fill:#ffffff"/>
</svg>
