<svg
  xmlns="http://www.w3.org/2000/svg"
  width="512"
  height="512"
  viewBox="0 0 512 512">
  <path
    d="M 224,96 80,240 c 0,0 -32,32 0,64 l 112,112 c 8,8 16,8 16,8 l 96,0 c 0,0 8,0 16,-8 L 432,304 c 0,0 32,-32 0,-64 L 288,96 c -32,-32 -64,0 -64,0 z m 40,60 12,12 c 4,4 4,12 0,16 L 172,288 c -4,4 -20,4 -24,0 l -8,-8 c -4,-4 -4,-12 0,-16 L 248,156 c 4,-4 12,-4 16,0 z m 0,96 12,12 c 4,4 4,12 0,16 l -56,56 c -4,4 -20,4 -24,0 l -8,-8 c -4,-4 -4,-12 0,-16 l 60,-60 c 4,-4 12,-4 16,0 z m 0,96 12,12 c 4,4 4,12 0,16 l -8,8 c -4,4 -20,4 -24,0 l -8,-8 c -4,-4 -4,-12 0,-16 l 12,-12 c 4,-4 12,-4 16,0 z"
    style="fill:#ffffff"/>
</svg>
