<?xml version="1.0" encoding="UTF-8" standalone="no"?>
<svg
  xmlns="http://www.w3.org/2000/svg"
  version="1.1"
  width="512"
  height="512"
  viewbox="0 0 512 512">
  <path
    d="m 113.3032,344.07673 c -11.04471,0.55869 -21.936221,4.76946 -30.41364,11.80109 -4.692926,4.15967 -9.008377,8.74306 -12.03146,14.27827 -6.478239,11.32305 -8.532704,25.13636 -5.452411,37.84171 1.87372,7.76401 5.474987,15.19871 10.617141,21.27259 4.202778,4.75117 8.885475,9.07021 14.508059,12.08449 11.313341,6.35387 25.052401,8.29846 37.677131,5.19511 7.68381,-1.90034 15.04414,-5.47162 21.06203,-10.57134 4.75125,-4.2027 9.07038,-8.88531 12.08472,-14.5078 6.35399,-11.31315 8.29858,-25.05196 5.19521,-37.67647 -1.9004,-7.68368 -5.47172,-15.04388 -10.57154,-21.06168 -4.20278,-4.75116 -8.88547,-9.07021 -14.50806,-12.0845 -8.52397,-4.74462 -18.40172,-7.11609 -28.16718,-6.57147 z"
    style="fill:#ffffff"/>
  <path
    d="M 318,448 H 243.55172 A 179.55172,179.55172 0 0 0 64,268.44828 V 194 a 254,254 0 0 1 254,254 z"
    style="fill:#ffffff"/>
  <path
    d="M 371.2,448 A 307.2,307.2 0 0 0 64,140.8 V 64 a 384,384 0 0 1 384,384 z"
    style="fill:#ffffff"/>
</svg>
