<svg
  xmlns="http://www.w3.org/2000/svg"
  width="512"
  height="512"
  viewBox="0 0 512 512">
  <path
    d="m 128,152.203 c -35.33,0 -63.797,28.467 -63.797,63.797 0,35.33 28.467,63.797 63.797,63.797 35.33,-3e-5 63.797,-28.467 63.797,-63.797 -2e-5,-35.33 -28.467,-63.797 -63.797,-63.797 z m 164,0 c -35.33,0 -63.797,28.467 -63.797,63.797 0,35.33 28.467,63.797 63.797,63.797 35.33,-3e-5 63.797,-28.467 63.797,-63.797 C 355.797,180.67 327.33,152.203 292,152.203 Z M 108,184 a 12,12 0 0 1 12,12 12,12 0 0 1 -12,12 12,12 0 0 1 -12,-12 12,12 0 0 1 12,-12 z m 40,0 a 12,12 0 0 1 12,12 12,12 0 0 1 -12,12 12,12 0 0 1 -12,-12 12,12 0 0 1 12,-12 z m 124,0 a 12,12 0 0 1 12,12 12,12 0 0 1 -12,12 12,12 0 0 1 -12,-12 12,12 0 0 1 12,-12 z m 40,0 a 12,12 0 0 1 12,12 12,12 0 0 1 -12,12 12,12 0 0 1 -12,-12 12,12 0 0 1 12,-12 z m 72,0.203 c -6.113,0 -12.013,0.87 -17.604,2.463 C 369.997,195.757 372,205.648 372,216 c 0,1.01 -0.025,2.014 -0.063,3.016 A 12,12 0 0 1 376,228 a 12,12 0 0 1 -7.412,11.076 c -5.914,19.566 -19.14,35.986 -36.482,46.088 11.557,16.138 30.455,26.633 51.895,26.633 35.33,-3e-5 63.797,-28.467 63.797,-63.797 C 447.797,212.67 419.33,184.203 384,184.203 Z M 404,216 a 12,12 0 0 1 12,12 12,12 0 0 1 -12,12 12,12 0 0 1 -12,-12 12,12 0 0 1 12,-12 z m -196,16.203 c -0.558,0 -1.109,0.027 -1.664,0.041 -2.478,11.948 -7.641,22.923 -14.813,32.285 A 12,12 0 0 1 200,276 a 12,12 0 0 1 -12,12 12,12 0 0 1 -11.461,-8.484 c -9.364,7.176 -20.343,12.342 -32.295,14.82 -0.014,0.555 -0.041,1.106 -0.041,1.664 0,35.33 28.467,63.797 63.797,63.797 35.33,-3e-5 63.797,-28.467 63.797,-63.797 -10e-6,-0.877 -0.03,-1.745 -0.065,-2.613 -11.89,-3.12 -22.7,-8.927 -31.766,-16.715 A 12,12 0 0 1 228,288 a 12,12 0 0 1 -12,-12 12,12 0 0 1 12,-12 12,12 0 0 1 0.063,0.004 c -6.916,-9.186 -11.9,-19.9 -14.348,-31.535 -1.884,-0.166 -3.787,-0.266 -5.715,-0.266 z"
    style="fill:#ffffff"/>
</svg>
