<?xml version="1.0" encoding="UTF-8" standalone="no"?>
<svg
  xmlns="http://www.w3.org/2000/svg"
  version="1.1"
  width="512"
  height="512"
  viewBox="0 0 512 512">
  <path
    d="m 95.831,126.117 c -44.209,0 -79.831,35.622 -79.831,79.831 0,44.209 35.622,79.831 79.831,79.831 44.209,-4e-5 79.831,-35.622 79.831,-79.831 -2e-5,-44.209 -35.622,-79.831 -79.831,-79.831 z m 205.217,0 c -44.209,0 -79.831,35.622 -79.831,79.831 0,44.209 35.622,79.831 79.831,79.831 44.209,-4e-5 79.831,-35.622 79.831,-79.831 -4e-5,-44.209 -35.622,-79.831 -79.831,-79.831 z M 70.804,165.905 a 15.016,15.016 0 0 1 15.016,15.016 15.016,15.016 0 0 1 -15.016,15.016 15.016,15.016 0 0 1 -15.016,-15.016 15.016,15.016 0 0 1 15.016,-15.016 z m 50.053,0 a 15.016,15.016 0 0 1 15.016,15.016 15.016,15.016 0 0 1 -15.016,15.016 15.016,15.016 0 0 1 -15.016,-15.016 15.016,15.016 0 0 1 15.016,-15.016 z m 155.164,0 a 15.016,15.016 0 0 1 15.016,15.016 15.016,15.016 0 0 1 -15.016,15.016 15.016,15.016 0 0 1 -15.016,-15.016 15.016,15.016 0 0 1 15.016,-15.016 z m 50.053,0 a 15.016,15.016 0 0 1 15.016,15.016 15.016,15.016 0 0 1 -15.016,15.016 15.016,15.016 0 0 1 -15.016,-15.016 15.016,15.016 0 0 1 15.016,-15.016 z m 90.095,0.254 c -7.65,0 -15.032,1.089 -22.028,3.082 4.506,11.376 7.012,23.753 7.012,36.706 0,1.264 -0.031,2.521 -0.078,3.774 a 15.016,15.016 0 0 1 5.083,11.242 15.016,15.016 0 0 1 -9.275,13.86 c -7.4,24.484 -23.951,45.031 -45.651,57.671 14.462,20.194 38.109,33.326 64.937,33.326 44.209,-4e-5 79.831,-35.622 79.831,-79.831 -4e-5,-44.209 -35.622,-79.831 -79.831,-79.831 z m 25.026,39.788 a 15.016,15.016 0 0 1 15.016,15.016 15.016,15.016 0 0 1 -15.016,15.016 15.016,15.016 0 0 1 -15.016,-15.016 15.016,15.016 0 0 1 15.016,-15.016 z M 195.936,226.222 c -0.699,0 -1.388,0.034 -2.082,0.051 -3.1,14.951 -9.561,28.684 -18.535,40.399 a 15.016,15.016 0 0 1 10.607,14.354 15.016,15.016 0 0 1 -15.016,15.016 15.016,15.016 0 0 1 -14.341,-10.617 c -11.718,8.979 -25.455,15.444 -40.411,18.545 -0.018,0.694 -0.051,1.384 -0.051,2.082 0,44.209 35.622,79.831 79.831,79.831 44.209,-4e-5 79.831,-35.622 79.831,-79.831 -2e-5,-1.097 -0.037,-2.184 -0.081,-3.27 -14.879,-3.905 -28.405,-11.171 -39.749,-20.916 a 15.016,15.016 0 0 1 -14.974,14.175 15.016,15.016 0 0 1 -15.016,-15.016 15.016,15.016 0 0 1 15.016,-15.016 15.016,15.016 0 0 1 0.078,0.005 c -8.654,-11.494 -14.89,-24.902 -17.954,-39.461 -2.357,-0.208 -4.739,-0.332 -7.151,-0.332 z"
    style="fill:#ffffff"/>
</svg>
