<svg
  xmlns="http://www.w3.org/2000/svg"
  width="512"
  height="512"
  viewBox="0 0 512 512">
  <path
    d="m 254.675,64 c -14.752,0 -28.628,5.747 -39.062,16.183 -10.434,10.431 -16.179,24.302 -16.179,39.058 0,14.756 5.748,28.631 16.183,39.062 10.432,10.436 24.306,16.183 39.058,16.183 14.756,0 28.633,-5.747 39.066,-16.183 10.431,-10.431 16.175,-24.3 16.175,-39.062 0,-14.756 -5.745,-28.63 -16.179,-39.066 -10.43,-10.431 -24.305,-16.175 -39.062,-16.175 z m 0,39.008 c 4.338,0 8.415,1.689 11.479,4.754 3.067,3.07 4.758,7.143 4.758,11.479 0,4.339 -1.693,8.413 -4.758,11.474 -3.066,3.07 -7.141,4.758 -11.479,4.758 -4.333,0 -8.41,-1.689 -11.474,-4.754 -3.065,-3.067 -4.758,-7.14 -4.758,-11.479 0,-4.336 1.692,-8.407 4.758,-11.474 3.065,-3.067 7.142,-4.758 11.474,-4.758 z m -94.265,45.42 c -4.609,0.101 -9.24,1.531 -13.285,4.396 -10.791,7.632 -13.346,22.571 -5.708,33.362 15.778,22.297 34.937,38.775 56.948,48.972 4.323,2.005 8.736,3.767 13.257,5.289 -18.696,13.501 -38.91,32.422 -48.594,58.364 -10.052,26.922 -9.926,56.07 0.35,82.079 9.859,24.951 28.108,45.244 51.388,57.146 25.937,13.261 58.952,13.29 88.314,0.066 30.813,-13.869 50.91,-39.263 53.767,-67.941 2.999,-30.185 -11.472,-57.063 -36.876,-68.472 -26.312,-11.817 -55.994,-3.38 -75.613,21.484 -8.191,10.375 -6.419,25.429 3.955,33.617 10.378,8.192 25.433,6.416 33.621,-3.959 5.83,-7.387 12.55,-10.113 18.434,-7.47 5.015,2.253 9.972,8.71 8.845,20.068 -1.123,11.243 -11.002,22.373 -25.78,29.028 -15.992,7.193 -33.957,7.56 -46.881,0.955 -12.9,-6.597 -23.073,-18 -28.649,-32.11 -4.188,-10.591 -7.592,-27.485 -0.025,-47.746 5.674,-15.197 19.978,-29.537 45.017,-45.116 10.628,-6.618 22.025,-12.783 33.045,-18.747 12.709,-6.879 24.755,-13.398 35.333,-20.381 18.825,-10.295 35.384,-25.444 49.314,-45.124 7.638,-10.791 5.08,-25.729 -5.708,-33.362 -10.792,-7.64 -25.733,-5.084 -33.37,5.704 -9.375,13.255 -19.753,23.081 -31.563,29.867 -1.089,0.625 -2.194,1.226 -3.309,1.803 -1.027,0.533 -2.071,1.041 -3.12,1.527 -11.027,5.111 -23.308,7.793 -37.506,8.219 -14.2,-0.426 -26.487,-3.112 -37.518,-8.223 -14.528,-6.733 -26.959,-17.589 -38.004,-33.193 -4.772,-6.743 -12.395,-10.268 -20.076,-10.1 z"
    style="fill:#ffffff"/>
</svg>
