<svg
  xmlns="http://www.w3.org/2000/svg"
  width="512"
  height="512"
  viewBox="0 0 512 512">
  <path
    d="M 440.771,238.881 273.095,71.243 c -9.639,-9.658 -25.306,-9.658 -34.964,0 l -34.829,34.81 44.161,44.161 c 10.253,-3.475 22.023,-1.152 30.202,7.046 8.218,8.218 10.541,20.103 6.97,30.394 l 42.586,42.567 c 10.291,-3.552 22.176,-1.248 30.394,6.989 11.501,11.482 11.501,30.106 0,41.607 -11.501,11.501 -30.125,11.501 -41.626,0 -8.64,-8.659 -10.791,-21.351 -6.394,-32.007 l -39.706,-39.706 0,104.449 c 2.803,1.382 5.453,3.245 7.776,5.568 11.501,11.482 11.501,30.106 0,41.607 -11.501,11.501 -30.125,11.501 -41.607,0 -11.501,-11.501 -11.501,-30.125 0,-41.607 2.822,-2.822 6.106,-4.992 9.619,-6.413 V 205.299 c -3.494,-1.44 -6.758,-3.571 -9.6,-6.432 -8.698,-8.698 -10.81,-21.485 -6.355,-32.16 L 186.195,123.161 71.243,238.132 c -9.658,9.658 -9.658,25.306 0,34.964 l 167.656,167.676 c 9.658,9.639 25.306,9.639 34.983,0 L 440.771,273.883 c 9.639,-9.658 9.639,-25.344 0,-35.002 z"
    style="fill:#ffffff"/>
</svg>
