<?xml version="1.0" encoding="UTF-8" standalone="no"?>
<svg
  xmlns="http://www.w3.org/2000/svg"
  version="1.1"
  width="512"
  height="512"
  viewBox="0 0 512 512">
  <path
    d="M 511.6212,250.08113 512,248.20199 c -42.1583,-8.42977 -85.422,-8.51502 -111.5947,-7.4273 4.2994,-15.49179 5.5928,-33.31728 5.5928,-53.19508 0,-28.50916 -10.7107,-51.31595 -28.0992,-68.67064 3.0385,-9.80835 7.0971,-31.591012 -4.0532,-59.476492 0,0 -19.6722,-6.24623 -64.1683,23.53463 -17.4305,-4.35626 -35.9811,-6.50733 -54.5588,-6.50733 -20.4406,0 -41.09496,2.60293 -60.35856,7.88726 -45.91662,-31.32449 -66.18676,-24.9078 -66.18676,-24.9078 -13.23113,33.08729 -5.05028,57.586522 -2.56505,63.670412 -15.55131,16.78378 -25.0458,38.20928 -25.0458,64.47672 0,19.83047 2.25796,37.62078 7.77228,53.08279 C 82.33874,239.70863 40.65393,240.07796 0,248.20739 l 0.37339,1.87914 c 40.8988,-8.17948 82.84607,-8.46359 109.08105,-7.47056 1.21488,3.20089 2.56911,6.30574 4.08704,9.30642 -25.94411,0.83607 -70.24403,4.14252 -112.69864,16.11952 l 0.52357,1.8399 c 42.79011,-12.065 87.47426,-15.28883 113.16672,-16.07485 15.50126,28.89475 46.06273,47.55625 100.43211,53.41695 -7.7168,5.1856 -15.58919,14.0009 -18.77927,28.9163 -10.51591,5.03 -43.80478,17.3074 -63.77728,-17.0448 0,0 -11.18017,-20.4406 -32.57997,-22.0411 0,0 -20.75853,-0.3179 -1.43269,12.9362 0,0 13.88998,6.5452 23.47375,31.1419 0,0 12.50193,41.9526 72.83208,28.4929 v 43.3353 c 0,0 -1.27576,15.3281 -15.32808,20.4352 0,0 -8.3026,5.7484 0.64261,8.9371 0,0 38.95201,3.1942 38.95201,-28.7324 v -47.2546 c 0,0 -1.54498,-18.74 7.66134,-25.2541 v 77.6158 c 0,0 -0.63585,18.5182 -10.21557,25.5437 0,0 -6.38963,11.4913 7.66134,8.3026 0,0 26.81941,-3.8314 28.09788,-35.122 l 0.60744,-78.548 h 6.44647 l 0.6128,78.548 c 1.2758,31.2906 28.0966,35.122 28.0966,35.122 14.0469,3.1887 7.6613,-8.3026 7.6613,-8.3026 -9.5784,-7.0255 -10.2155,-25.5437 -10.2155,-25.5437 v -76.9462 c 9.2008,7.1649 7.6613,24.5832 7.6613,24.5832 v 47.2546 c 0,31.9279 38.9533,28.7324 38.9533,28.7324 8.9371,-3.1888 0.6413,-8.9372 0.6413,-8.9372 -14.051,-5.1071 -15.3281,-20.4351 -15.3281,-20.4351 v -61.9428 c 0,-24.1543 -10.1709,-36.9457 -20.1173,-43.6979 57.983,-5.7497 85.8076,-24.4722 98.6288,-53.56173 25.3975,0.69809 71.1031,3.79213 114.8226,16.12493 l 0.5195,-1.8399 c -43.4692,-12.26112 -88.8731,-15.43362 -114.5277,-16.1804 1.2149,-2.93844 2.2755,-5.9946 3.2171,-9.13869 26.0429,-1.08229 69.5108,-1.06875 111.8288,7.38673 z"
    style="fill:#ffffff"/>
</svg>
