<?xml version="1.0" encoding="UTF-8" standalone="no"?>
<svg
  xmlns="http://www.w3.org/2000/svg"
  version="1.1"
  height="512"
  width="512"
  viewBox="0 0 512 512">
  <path
    d="m 135.678,64.008 c -3.152,0.066 -4.67,0.551 -4.67,0.551 -13.138,33.317 -4.86,57.92 -2.348,64.012 -15.472,16.939 -24.92,38.517 -24.92,64.92 0,92.68 56.476,113.427 110.199,119.539 -6.917,6.039 -13.181,16.709 -15.355,32.338 -13.803,6.18 -48.817,16.873 -70.389,-20.1 0,0 -12.786,-23.224 -37.074,-24.93 0,0 -23.599,-0.311 -1.654,14.701 0,0 15.851,7.438 26.854,35.391 0,0 14.198,43.17 81.488,28.539 0.105,20.21 0.33,63.268 0.33,69.031 l 119.93,0 c 0,-7.967 0.279,-58.012 0.279,-90.375 0,-22.566 -7.73,-37.285 -16.406,-44.791 53.86,-5.988 110.445,-26.44 110.445,-119.344 0,-26.403 -9.382,-47.981 -24.891,-64.92 2.512,-6.092 10.791,-30.695 -2.375,-64.012 0,0 -20.286,-6.493 -66.451,24.801 -19.33,-5.359 -40.036,-8.047 -60.592,-8.143 -20.555,0.096 -41.252,2.784 -60.545,8.143 -31.775,-21.514 -51.302,-25.168 -60.404,-25.352 -0.517,-0.010 -1.001,-0.009 -1.451,0 z M 103.867,307.432 c 0.157,0.005 0.316,0.019 0.479,0.043 l 0,0.004 c 0.432,0.064 0.88,0.2 1.318,0.406 1.755,0.789 2.753,2.439 2.148,3.645 -0.533,1.206 -2.419,1.567 -4.141,0.742 -1.759,-0.794 -2.742,-2.433 -2.174,-3.639 0.293,-0.694 1.019,-1.104 1.91,-1.186 l 0,-0.002 c 0.149,-0.014 0.302,-0.018 0.459,-0.014 z m 9.611,8.316 c 1.107,-0.023 2.409,0.573 3.447,1.68 1.586,1.706 1.893,3.941 0.688,5.027 -1.154,1.070 -3.41,0.575 -4.936,-1.115 -1.587,-1.686 -1.878,-3.946 -0.709,-5.027 0.297,-0.267 0.654,-0.439 1.051,-0.516 0.149,-0.029 0.301,-0.045 0.459,-0.049 z m 9.566,12.371 c 1.376,-0.074 3.002,0.847 4.141,2.445 1.478,2.187 1.481,4.765 -0.033,5.818 -1.481,1.034 -3.912,0.070 -5.41,-2.080 -1.481,-2.154 -1.483,-4.735 0.035,-5.768 0.374,-0.258 0.809,-0.391 1.268,-0.416 z m 11.6,13.744 c 1.343,-0.063 2.941,0.566 4.242,1.803 2.099,1.946 2.736,4.73 1.326,6.176 -1.325,1.461 -4.146,1.075 -6.213,-0.924 -2.115,-1.946 -2.706,-4.718 -1.381,-6.18 0.505,-0.549 1.219,-0.837 2.025,-0.875 z m 17.607,10.516 c 0.653,0.008 1.339,0.113 2.029,0.328 2.731,0.825 4.521,3.025 3.953,4.951 -0.588,1.895 -3.303,2.752 -6.043,1.947 -2.735,-0.83 -4.524,-3.042 -3.971,-4.957 0.427,-1.43 2.072,-2.291 4.031,-2.27 z m 39.473,0.832 c 0.345,-0.013 0.682,-0.002 1.006,0.033 1.943,0.213 3.451,1.246 3.725,2.73 0.344,1.943 -1.656,3.936 -4.512,4.469 -2.808,0.516 -5.405,-0.683 -5.762,-2.609 -0.349,-1.995 1.678,-3.997 4.486,-4.514 0.358,-0.062 0.712,-0.097 1.057,-0.109 z m -18.926,2.363 0.002,0 c 2.875,-0.055 5.234,1.554 5.234,3.533 0.068,1.995 -2.255,3.647 -5.131,3.684 -2.891,0.064 -5.236,-1.551 -5.268,-3.514 0,-2.014 2.275,-3.651 5.162,-3.703 z"
    style="fill:#ffffff"/>
</svg>
