<?xml version="1.0" encoding="UTF-8" standalone="no"?>
<svg
viewbox="0 0 2000 2000"
width="2000"
height="2000"
version="1.1"
xmlns="http://www.w3.org/2000/svg">
<path
d="m 1998.5203,976.87944 1.4797,-7.3404 c -164.681,-32.9288 -333.6795,-33.2618 -435.9167,-29.0129 16.7946,-60.5148 21.8468,-130.1456 21.8468,-207.79329 0,-111.3639 -41.8388,-200.4529 -109.7626,-268.24467 11.8693,-38.31388 27.7233,-123.40238 -15.8329,-232.33004 0,0 -76.8444,-24.39933 -250.6573,91.93215 -68.0877,-17.01664 -140.5511,-25.41927 -213.12026,-25.41927 -79.84611,0 -160.5272,10.16771 -235.77565,30.80964 -179.36177,-122.3613 -258.54201,-97.2961 -258.54201,-97.2961 -51.68409,129.24723 -19.72768,224.94735 -10.01974,248.71252 -60.7473,65.56165 -97.83513,149.255 -97.83513,251.86219 0,77.46277 8.82012,146.95617 30.36044,207.35467 C 321.63571,936.36184 158.8044,937.80454 0,969.56014 l 1.45857,7.3404 c 159.76092,-31.9511 323.61746,-33.0609 426.09782,-29.1819 4.74564,12.5035 10.0356,24.6318 15.965,36.3532 -101.34416,3.2659 -274.39074,16.18166 -440.22904,62.96686 l 2.04517,7.1871 c 167.14889,-47.1287 341.69633,-59.72196 442.05753,-62.79236 60.55178,112.86996 179.93252,185.76676 392.31292,208.65996 -30.14377,20.2561 -60.89528,54.691 -73.35653,112.9545 -41.07776,19.6484 -171.1124,67.6068 -249.13001,-66.5816 0,0 -43.67253,-79.8461 -127.26548,-86.0978 0,0 -81.08801,-1.2419 -5.59647,50.532 0,0 54.25773,25.5672 91.69435,121.6479 0,0 48.83565,163.8776 284.50032,111.3004 v 169.2787 c 0,0 -4.98345,59.8753 -59.87533,79.8249 0,0 -32.43204,22.4546 2.51022,34.9106 0,0 152.15627,12.4771 152.15627,-112.2359 v -184.5883 c 0,0 -6.03509,-73.2033 29.9271,-98.649 v 303.1869 c 0,0 -2.48379,72.3366 -39.90456,99.7799 0,0 -24.9595,44.888 29.9271,32.432 0,0 104.76334,-14.9661 109.75736,-137.1953 l 2.37281,-306.8281 h 25.18148 l 2.3939,306.8281 c 4.9835,122.2292 109.7521,137.1953 109.7521,137.1953 54.8708,12.456 29.9271,-32.432 29.9271,-32.432 -37.4155,-27.4433 -39.9045,-99.7799 -39.9045,-99.7799 v -300.571 c 35.941,27.9877 29.927,96.0278 29.927,96.0278 v 184.5883 c 0,124.7183 152.1616,112.2359 152.1616,112.2359 34.9106,-12.456 2.5049,-34.9106 2.5049,-34.9106 -54.8866,-19.9496 -59.8753,-79.8249 -59.8753,-79.8249 v -241.964 c 0,-94.3526 -39.7302,-144.3191 -78.5831,-170.6949 226.4958,-22.4599 335.1857,-95.5945 385.2685,-209.22546 99.2091,2.7269 277.7465,14.81296 448.526,62.98796 l 2.0293,-7.1871 c -169.8018,-47.89496 -347.1607,-60.28756 -447.3739,-63.20466 4.7456,-11.4783 8.8888,-23.4164 12.5669,-35.698 101.7299,-4.2277 271.5265,-4.1748 436.831,28.8544 z"
style="fill:#ffffff"/>
</svg>
