<?xml version="1.0" encoding="UTF-8" standalone="no"?>
<svg
  xmlns="http://www.w3.org/2000/svg"
  version="1.1"
  width="512"
  height="512"
  viewBox="0 0 512 512">
  <path
    d="m 220.74518,64.002 c -27.01786,0 -65.95165,6.39297 -94.4565,29.92384 -21.48289,18.53591 -31.96284,44.09177 -31.96284,67.09965 0,39.0548 29.98785,78.6456 82.93957,78.6456 5.00197,0 10.47195,-0.493 15.97792,-1.004 -2.47199,6.01697 -4.97198,11.02494 -4.97198,19.5299 0,15.50992 7.96996,25.02387 14.99392,34.03382 -22.49988,1.54699 -64.50266,4.03998 -95.4665,23.06988 -29.48985,17.53991 -38.4668,43.06378 -38.4668,61.07968 0,37.07981 34.95282,71.61963 107.42744,71.61963 85.94156,0 131.43932,-47.55675 131.43932,-94.63251 0.005,-34.58982 -19.9759,-51.61573 -41.96978,-70.14263 l 0.002,-0.002 -18.00691,-13.98293 c -5.48397,-4.54798 -12.98493,-10.55294 -12.98493,-21.54289 0,-11.03694 7.49996,-18.0529 14.00993,-24.54987 20.97689,-16.50991 41.93578,-34.08382 41.93578,-71.11463 0,-38.0798 -23.95988,-58.1097 -35.44382,-67.61265 l 30.96284,0 L 319.20367,64 220.74418,64 Z m -36.45981,18.9179 c 41.44979,0 62.94768,56.07771 62.94768,92.14552 0,9.02395 -0.996,25.01487 -12.48794,36.57481 -8.03796,8.01996 -21.48689,13.99693 -33.97382,13.99693 -42.99378,0 -62.46968,-55.57971 -62.46968,-89.11654 0,-13.05593 2.46999,-26.53686 10.97495,-37.06681 8.01595,-10.02695 21.97688,-16.53291 35.00981,-16.53291 z m 183.40905,91.88252 0,50.06974 -49.98274,0 0,25.00587 49.98674,0 0,50.37574 24.72987,0 0,-50.37474 50.23974,0 0,-25.00687 -50.23974,0 0,-50.06974 -24.73187,0 z M 208.76525,306.27174 c 4.99597,0 7.49596,0 11.47394,0.502 38.0078,27.04985 54.50371,40.52978 54.50371,66.13665 0,31.00984 -25.49186,54.10172 -73.47761,54.10172 -53.46473,0 -87.94355,-25.57487 -87.94355,-61.13668 0,-35.55282 31.96984,-47.57975 42.96978,-51.55973 20.97589,-7.05997 47.96975,-8.04396 52.47373,-8.04396 z"
    style="fill:#ffffff"/>
</svg>
