<?xml version="1.0" encoding="UTF-8" standalone="no"?>
<svg
  xmlns="http://www.w3.org/2000/svg"
  version="1.1"
  width="512"
  height="512"
  viewBox="0 0 512 512">
  <path
    d="m 190.334,126.01 c -46.235,0.072 -90.975,27.237 -112.654,68.021 -23.556,42.43 -20.251,97.98 8.305,137.246 25.27,36.215 69.912,57.559 113.969,54.519 36.349,-1.337 72.689,-18.518 93.657,-48.796 C 315.33,306.364 321.053,266.409 314.07,230 272.714,230 231.357,230 190,230 c 0,17.973 0,35.947 0,53.92 22.943,0.225 47.001,-0.45 69.25,0.336 -4.911,24.078 -26.262,41.977 -50.029,46.034 -26.728,5.936 -56.195,-3.669 -73.586,-24.976 -21.84,-24.904 -24.264,-64.234 -5.428,-91.525 16.886,-26.52 51.481,-40.091 81.768,-31.107 10.255,2.871 19.778,8.27 27.545,15.551 -1.253,8.979 6.633,-4.105 9.778,-5.743 10.396,-10.396 20.793,-20.793 31.189,-31.189 C 256.66,138.035 223.596,125.246 190.334,126.01 Z M 374,200 c 0,12.667 0,25.333 0,38 -13.333,0 -26.667,0 -40,0 0,12 0,24 0,36 13.333,0 26.667,0 40,0 0,13.333 0,26.667 0,40 12,0 24,0 36,0 0,-13.333 0,-26.667 0,-40 13.333,0 26.667,0 40,0 0,-12 0,-24 0,-36 -13.333,0 -26.667,0 -40,0 0,-13.333 0,-26.667 0,-40 -12,0 -24,0 -36,0 l 0,1 0,1 z"
    style="fill:#ffffff"/>
</svg>
