<?xml version="1.0" encoding="UTF-8" standalone="no"?>
<svg
  xmlns="http://www.w3.org/2000/svg"
  version="1.1"
  width="512"
  height="512"
  viewBox="0 0 512 512">
  <path
    d="m 183.289,112.066 c -51.194,0.08 -100.732,30.158 -124.736,75.316 -26.082,46.98 -22.423,108.488 9.196,151.965 27.98,40.099 77.41,63.732 126.192,60.366 40.247,-1.48 80.485,-20.504 103.701,-54.029 24.048,-33.922 30.385,-78.162 22.653,-118.475 -45.791,0 -91.584,0 -137.376,0 0,19.901 0,39.802 0,59.703 25.404,0.249 52.042,-0.498 76.677,0.372 -5.438,26.66 -29.078,46.479 -55.394,50.971 -29.594,6.573 -62.222,-4.062 -81.478,-27.655 -24.182,-27.575 -26.866,-71.123 -6.01,-101.341 18.697,-29.364 57.002,-44.391 90.537,-34.443 11.355,3.179 21.899,9.157 30.499,17.219 -1.387,9.942 7.344,-4.545 10.827,-6.359 11.511,-11.511 23.023,-23.023 34.534,-34.534 -26.382,-25.761 -62.992,-39.922 -99.822,-39.076 z m 203.363,81.925 c 0,14.025 0,28.05 0,42.075 -14.763,0 -29.527,0 -44.29,0 0,13.287 0,26.574 0,39.861 14.763,0 29.527,0 44.29,0 0,14.763 0,29.527 0,44.29 13.287,0 26.574,0 39.861,0 0,-14.763 0,-29.527 0,-44.29 14.763,0 29.527,0 44.29,0 0,-13.287 0,-26.574 0,-39.861 -14.763,0 -29.527,0 -44.29,0 0,-14.763 0,-29.527 0,-44.29 -13.287,0 -26.574,0 -39.861,0 l 0,1.107 0,1.107 z"
    style="fill:#ffffff"/>
</svg>
