<?xml version="1.0" encoding="UTF-8" standalone="no"?>
<svg
  xmlns="http://www.w3.org/2000/svg"
  version="1.1"
  width="512"
  height="512"
  viewBox="0 0 512 512">
  <path
    d="M 192.99,128 C 120.26,128 64,189.38 64,255.68 64,320.65 116.92,384 194.84,384 c 68.53,0 118.7,-46.95 118.7,-116.37 0,-14.63 -2.13,-23.1 -2.13,-23.1 l -117.42,0 0,34.84 83.28,0 c -4.11,48.86 -44.77,69.7 -83.14,69.7 -49.09,0 -91.94,-38.63 -91.94,-92.77 0,-52.74 40.84,-93.36 92.05,-93.36 39.5,0 62.78,25.19 62.78,25.19 l 24.4,-25.27 c 0,0 -31.32,-34.86 -88.43,-34.86 z m 187.01,72 0,44 -44,0 0,24 44,0 0,44 24,0 0,-44 44,0 0,-24 -44,0 0,-44 z"
    style="fill:#ffffff"/>
</svg>
