<svg
  xmlns="http://www.w3.org/2000/svg"
  width="512"
  height="512"
  viewBox="0 0 512 512">
  <path
    d="m 192,128 c -70.692,0 -128,57.308 -128,128 0,70.692 57.308,128 128,128 70.692,0 128,-57.308 128,-128 -0.021,-8.056 -0.802,-16.091 -2.334,-24 L 192,232 l 0,48 76.297,0 c -10.479,33.322 -41.366,55.992 -76.297,56 -44.183,0 -80,-35.817 -80,-80 0,-44.183 35.817,-80 80,-80 21.21,0.019 41.545,8.46 56.533,23.467 l 33.92,-33.92 C 258.472,141.535 225.936,128.03 192,128 Z m 192,80 0,32 -32,0 0,32 32,0 0,32 32,0 0,-32 32,0 0,-32 -32,0 0,-32 z"
    style="fill:#ffffff"/>
</svg>
