<?xml version="1.0" encoding="UTF-8" standalone="no"?>
<svg
  xmlns="http://www.w3.org/2000/svg"
  version="1.1"
  width="512"
  height="512"
  viewBox="0 0 512 512">
  <path
    d="m 174.748,95.161 c -57.206,0.089 -112.561,33.699 -139.383,84.16 -29.145,52.497 -25.056,121.227 10.276,169.81 31.266,44.808 86.5,71.216 141.01,67.455 44.973,-1.654 89.936,-22.912 115.878,-60.373 26.872,-37.905 33.953,-87.34 25.313,-132.387 -51.168,0 -102.338,0 -153.508,0 0,22.238 0,44.476 0,66.714 28.387,0.278 58.153,-0.556 85.681,0.416 -6.077,29.791 -32.493,51.937 -61.899,56.956 -33.069,7.345 -69.528,-4.539 -91.046,-30.902 -27.022,-30.813 -30.021,-79.475 -6.716,-113.241 20.893,-32.812 63.696,-49.604 101.168,-38.488 12.688,3.552 24.471,10.232 34.08,19.241 -1.55,11.109 8.206,-5.079 12.098,-7.106 12.863,-12.863 25.727,-25.727 38.589,-38.589 C 256.812,110.039 215.903,94.215 174.748,95.161 Z m 227.243,91.545 c 0,15.672 0,31.344 0,47.016 -16.497,0 -32.994,0 -49.491,0 0,14.847 0,29.694 0,44.542 16.497,0 32.994,0 49.491,0 0,16.497 0,32.994 0,49.491 14.847,0 29.694,0 44.542,0 0,-16.497 0,-32.994 0,-49.491 16.497,0 32.994,0 49.491,0 0,-14.847 0,-29.694 0,-44.542 -16.497,0 -32.994,0 -49.491,0 0,-16.497 0,-32.994 0,-49.491 -14.847,0 -29.694,0 -44.542,0 l 0,1.237 0,1.237 z"
    style="fill:#ffffff"/>
</svg>
