<svg
  xmlns="http://www.w3.org/2000/svg"
  width="512"
  height="512"
  viewBox="0 0 512 512">
  <path
    d="m 272.594,64 c -22.089,7.803 -27.658,19.729 -29.313,30.531 -5.682,-4.067 -5.061,-17.328 -5.375,-20.719 -5.646,0.674 -21.876,16.427 -21.156,36.25 -1.489,0.405 -2.947,0.827 -4.406,1.281 -4.744,-6.445 -18.661,-23.524 -37,-29.438 -6.047,-1.953 -12.131,-2.938 -18.063,-2.938 -21.761,0 -34.576,12.961 -34.688,13.094 l -6.125,7.125 9.188,1.813 c 0.151,0.031 15.45,3.223 21.781,13.219 1.05,1.661 1.364,4.982 1.656,8.469 0.179,2.074 -0.3,4.076 -0.719,6.031 -0.317,1.459 -0.591,2.916 -0.656,4.406 -5.75,0.208 -10.702,1.334 -14.688,3.375 -5.402,2.764 -9.043,7.176 -10.563,12.75 -3.725,13.665 8.399,28.889 8.813,29.375 1.415,2.525 2.018,20.846 -1.25,28.188 -0.449,1.013 -1.659,1.991 -3.219,3.25 -0.488,0.395 -1.077,0.842 -1.656,1.281 -4.61,3.48 -11.563,8.724 -11.563,20.844 0,16.583 16.806,25.583 30.313,32.813 2.216,1.192 4.338,2.336 6.25,3.438 2.017,1.166 9.152,8.542 9.156,19.563 0,5.163 -0.488,29.68 -2.781,46.719 -8.67,-7.426 -16.675,-19.332 -18.469,-32.75 0,0 -21.911,16.917 -15.469,53.125 3.939,22.149 17.384,34.543 35.25,41.031 6.596,14.305 22.017,34.284 50.438,37.219 10.834,8.874 25.801,14.638 47.656,14.656 l 0.094,0 0.031,0 c 21.853,-0.019 36.823,-5.782 47.656,-14.656 28.45,-2.929 43.88,-22.939 50.469,-37.25 17.843,-6.493 31.28,-18.869 35.219,-41 6.442,-36.208 -15.469,-53.125 -15.469,-53.125 -1.793,13.407 -9.776,25.322 -18.438,32.75 -2.296,-17.039 -2.786,-41.556 -2.781,-46.719 0,-11.02 7.138,-18.397 9.156,-19.563 1.906,-1.102 4.001,-2.245 6.219,-3.438 13.502,-7.23 30.313,-16.229 30.313,-32.813 0,-12.12 -6.951,-17.364 -11.563,-20.844 -0.583,-0.439 -1.137,-0.886 -1.625,-1.281 -1.564,-1.259 -2.801,-2.237 -3.25,-3.25 -3.263,-7.342 -2.664,-25.662 -1.25,-28.188 0.414,-0.486 12.569,-15.71 8.844,-29.375 -1.522,-5.574 -5.19,-9.986 -10.594,-12.75 -4.233,-2.165 -9.544,-3.305 -15.75,-3.406 -0.161,-3.318 -1.694,-6.728 -1.375,-10.531 0.305,-3.623 0.586,-7.021 1.781,-8.906 6.649,-10.499 22.338,-13.686 22.5,-13.719 L 393.5,98.5 388.625,92.75 C 387.993,92.012 367.972,72.94 337,82.938 c -17.605,5.679 -31.347,22.209 -36.25,28.781 -2.718,-0.873 -5.491,-1.674 -8.313,-2.375 -3.139,-11.85 6.75,-28.844 6.75,-28.844 0,0 -10.166,-2.254 -25.25,11.438 C 271.985,87.066 267.863,76.547 272.594,64 z M 240,191.406 c 0.209,0.127 0.417,0.253 0.625,0.375 -0.044,0.064 -0.083,0.123 -0.125,0.188 -0.298,-0.342 -0.5,-0.563 -0.5,-0.563 z m 41,0 c 0,0 -0.272,0.311 -0.656,0.75 -0.062,-0.086 -0.151,-0.165 -0.219,-0.25 0.287,-0.166 0.586,-0.325 0.875,-0.5 z"
    style="fill:#ffffff"/>
</svg>
