<?xml version="1.0" encoding="UTF-8" standalone="no"?>
<svg
  xmlns="http://www.w3.org/2000/svg"
  version="1.1"
  width="512"
  height="512"
  viewBox="0 0 512 512">
  <path
    d="M 64 96 L 64 416 L 212 416 C 252 416 292 404 308 368 C 328 332 320 276 284 252 C 272 244 260 240 248 236 C 276 232 300 212 300 184 C 304 156 296 120 268 108 C 236 96 192 96 160 96 L 64 96 z M 364 96 L 364 308 L 444 308 L 444 96 L 364 96 z M 144 156 C 144 156 188 156 200 160 C 224 168 224 208 196 212 C 188 216 144 216 144 216 L 144 156 z M 144 280 C 144 280 188 280 208 284 C 232 288 240 312 228 332 C 220 348 204 348 188 348 L 144 348 L 144 280 z M 404 328 A 44 44 0 0 0 360 372 A 44 44 0 0 0 404 416 A 44 44 0 0 0 448 372 A 44 44 0 0 0 404 328 z"
    style="fill:#ffffff"/>
</svg>
