<svg
  xmlns="http://www.w3.org/2000/svg"
  width="512"
  height="512"
  viewBox="0 0 512 512">
  <path
    d="m 206.452,159.476 -43.355,29.377 43.355,29.377 43.355,-29.377 z m 99.097,0 -43.355,29.377 43.355,29.377 43.355,-29.377 z m -148.645,33.574 -43.355,29.377 43.355,29.377 43.355,-29.377 z m 99.097,0 -43.355,29.377 L 256,251.804 299.355,222.427 Z m 99.097,0 -43.355,29.377 43.355,29.377 43.355,-29.377 z M 256,197.246 293.161,222.427 256,247.607 218.839,222.427 Z m -148.645,29.377 -43.355,29.377 43.355,29.377 43.355,-29.377 z m 99.097,0 -43.355,29.377 43.355,29.377 43.355,-29.377 z m 99.097,0 -43.355,29.377 43.355,29.377 43.355,-29.377 z m 99.097,0 -43.355,29.377 43.355,29.377 43.355,-29.377 z m -297.29,4.197 37.161,25.18 -37.161,25.18 -37.161,-25.18 z m 99.097,0 37.161,25.18 -37.161,25.18 -37.161,-25.18 z m 198.194,0 37.161,25.18 -37.161,25.18 -37.161,-25.18 z m -247.742,29.377 -43.355,29.377 43.355,29.377 43.355,-29.377 z m 99.097,0 -43.355,29.377 L 256,318.951 299.355,289.574 Z m 99.097,0 -43.355,29.377 43.355,29.377 43.355,-29.377 z m -198.194,4.197 37.161,25.18 -37.161,25.18 -37.161,-25.18 z m 99.097,0 37.161,25.18 L 256,314.754 218.839,289.574 Z m 99.097,0 37.161,25.18 -37.161,25.18 -37.161,-25.18 z M 256,323.148 212.645,352.525 256,381.902 299.355,352.525 Z"
    style="fill:#ffffff"/>
</svg>
