<?xml version="1.0" encoding="UTF-8" standalone="no"?>
<svg
  xmlns="http://www.w3.org/2000/svg"
  version="1.1"
  width="512"
  height="512"
  viewBox="0 0 512 512">
  <path
    d="m 193.391,99.478 -52.174,39.13 52.174,39.13 52.174,-39.13 L 193.391,99.478 Z m 125.217,0 -52.174,39.13 52.174,39.13 52.174,-39.13 L 318.609,99.478 Z M 130.783,146.435 78.609,185.565 130.783,224.696 182.957,185.565 130.783,146.435 Z m 125.217,0 -52.174,39.13 L 256,224.696 308.174,185.565 256,146.435 Z m 125.217,0 -52.174,39.13 52.174,39.13 52.174,-39.13 -52.174,-39.13 z M 256,150.348 302.956,185.565 256,220.783 209.044,185.565 256,150.348 Z M 68.174,193.391 16,232.522 68.174,271.652 120.348,232.522 68.174,193.391 Z m 125.217,0 -52.174,39.13 52.174,39.13 52.174,-39.13 -52.174,-39.13 z m 125.217,0 -52.174,39.13 52.174,39.13 52.174,-39.13 -52.174,-39.13 z m 125.217,0 -52.174,39.13 52.174,39.13 52.174,-39.13 L 443.826,193.391 Z M 68.174,197.304 115.131,232.522 68.174,267.739 21.218,232.522 68.174,197.304 Z m 125.217,0 46.956,35.217 -46.956,35.217 -46.956,-35.217 46.956,-35.217 z m 250.434,0 46.956,35.217 -46.956,35.217 -46.956,-35.217 46.956,-35.217 z m -313.043,43.043 -52.174,39.13 52.174,39.13 52.174,-39.13 -52.174,-39.13 z m 125.217,0 -52.174,39.13 L 256,318.609 308.174,279.478 256,240.348 Z m 125.217,0 -52.174,39.13 52.174,39.13 52.174,-39.13 -52.174,-39.13 z m -250.434,3.913 46.956,35.217 -46.956,35.217 -46.956,-35.217 46.956,-35.217 z m 125.217,0 46.956,35.217 L 256,314.696 209.044,279.478 256,244.261 Z m 125.217,0 46.956,35.217 -46.956,35.217 -46.956,-35.217 46.956,-35.217 z M 256,334.261 203.826,373.391 256,412.522 308.174,373.391 256,334.261 Z"
    style="fill:#ffffff"/>
</svg>
