<?xml version="1.0" encoding="UTF-8" standalone="no"?>
<svg
  xmlns="http://www.w3.org/2000/svg"
  version="1.1"
  width="512"
  height="512"
  viewBox="0 0 512 512">
  <path
    d="m 208,176 -40,20 40,20 40,-20 -40,-20 z m 96,0 -40,20 40,20 40,-20 -40,-20 z m -144,24 -40,20 40,20 40,-20 -40,-20 z m 96,0 -40,20 40,20 40,-20 -40,-20 z m 96,0 -40,20 40,20 40,-20 -40,-20 z m -96,2 36,18 -36,18 -36,-18 36,-18 z m -144,22 -40,20 40,20 40,-20 -40,-20 z m 96,0 -40,20 40,20 40,-20 -40,-20 z m 96,0 -40,20 40,20 40,-20 -40,-20 z m 96,0 -40,20 40,20 40,-20 -40,-20 z m -288,2 36,18 -36,18 -36,-18 36,-18 z m 96,0 36,18 -36,18 -36,-18 36,-18 z m 192,0 36,18 -36,18 -36,-18 36,-18 z m -240,22 -40,20 40,20 40,-20 -40,-20 z m 96,0 -40,20 40,20 40,-20 -40,-20 z m 96,0 -40,20 40,20 40,-20 -40,-20 z m -192,2 36,18 -36,18 -36,-18 36,-18 z m 96,0 36,18 -36,18 -36,-18 36,-18 z m 96,0 36,18 -36,18 -36,-18 36,-18 z m -96,46 -40,20 40,20 40,-20 -40,-20 z"
    style="fill:#ffffff"/>
</svg>
