<svg
  xmlns="http://www.w3.org/2000/svg"
  width="512"
  height="512"
  viewBox="0 0 512 512">
  <path
    d="M 256,64 A 192,192 0 0 0 64,256 192,192 0 0 0 256,448 192,192 0 0 0 379.965,402.594 l 40.721,40.721 a 16,16 0 0 0 22.629,0 16,16 0 0 0 0,-22.629 L 402.461,379.832 A 192,192 0 0 0 448,256 192,192 0 0 0 256,64 Z m 0,32 a 160,160 0 0 1 160,160 160,160 0 0 1 -36.188,101.184 l -94.891,-94.889 a 16,16 0 0 0 -22.627,0 16,16 0 0 0 0,22.627 l 94.891,94.893 A 160,160 0 0 1 256,416 160,160 0 0 1 96,256 160,160 0 0 1 256,96 Z"
    style="fill:#ffffff"/>
</svg>
