<?xml version="1.0" encoding="UTF-8" standalone="no"?>
<svg
  xmlns="http://www.w3.org/2000/svg"
  version="1.1"
  width="512"
  height="512"
  viewBox="0 0 512 512">
  <path
    d="M 256,64 A 192,192 0 0 0 64,256 192,192 0 0 0 256,448 192,192 0 0 0 379.96484,402.59375 l 40.72071,40.7207 a 16,16 0 0 0 22.6289,0 16,16 0 0 0 0,-22.6289 L 402.46094,379.83203 A 192,192 0 0 0 448,256 192,192 0 0 0 256,64 Z m 0,32 a 160,160 0 0 1 160,160 160,160 0 0 1 -36.1875,101.18359 l -94.89062,-94.88867 a 16,16 0 0 0 -22.62696,0 16,16 0 0 0 0,22.62696 l 94.89063,94.89257 A 160,160 0 0 1 256,416 160,160 0 0 1 96,256 160,160 0 0 1 256,96 Z"
    style="fill:#ffffff"/>
</svg>
