<svg
  xmlns="http://www.w3.org/2000/svg"
  width="512"
  height="512"
  viewBox="0 0 512 512">
  <path
    d="M 346.5 85.563 C 326.002 85.563 305.509 93.335 289.938 108.906 L 287.688 111.188 L 233.375 165.5 L 256 188.125 L 312.563 131.531 C 331.561 112.532 361.469 112.532 380.469 131.531 C 399.468 150.53 399.468 180.437 380.469 199.438 L 312.563 267.313 C 293.564 286.311 263.688 286.312 244.688 267.313 C 240.039 262.664 236.593 257.406 234.25 251.781 L 204.719 264.063 C 208.639 273.474 214.442 282.317 222.063 289.938 C 253.206 321.08 304.044 321.081 335.188 289.938 L 403.094 222.063 C 434.236 190.919 434.237 140.049 403.094 108.906 C 387.522 93.335 366.998 85.562 346.5 85.563 z M 233.375 198.719 C 212.877 198.719 192.384 206.491 176.813 222.063 L 108.906 289.938 C 77.764 321.081 77.763 371.951 108.906 403.094 C 140.05 434.236 190.919 434.237 222.063 403.094 L 278.625 346.5 L 256 323.875 L 199.438 380.469 C 180.439 399.468 150.531 399.468 131.531 380.469 C 112.532 361.47 112.532 331.563 131.531 312.563 L 188.125 256 L 199.438 244.688 C 218.436 225.689 248.312 225.688 267.313 244.688 C 271.961 249.336 275.407 254.594 277.75 260.219 L 307.281 247.938 C 303.361 238.526 297.558 229.683 289.938 222.063 C 274.366 206.491 253.873 198.719 233.375 198.719 z"
    style="fill:#ffffff"/>
</svg>
