<svg
  xmlns="http://www.w3.org/2000/svg"
  width="512"
  height="512"
  viewBox="0 0 512 512">
  <path
    d="M 222.071,79.845 80.847,224.496 c -53.473,53.473 34.62,49.017 66.498,69.241 14.739,9.598 -47.303,21.938 -34.62,34.62 12.34,12.683 74.382,24.337 86.722,36.677 12.34,12.683 -25.023,26.051 -12.683,38.734 11.997,12.683 40.79,0.686 45.932,29.479 3.771,21.252 52.787,10.626 74.725,-7.541 13.711,-11.654 -23.652,-11.654 -11.312,-24.337 30.85,-31.193 58.272,-14.054 69.583,-42.847 6.17,-15.425 -46.617,-26.394 -32.564,-36.334 33.592,-23.652 156.991,-35.649 100.09,-92.549 L 286.855,79.845 c -18.167,-17.139 -47.989,-17.139 -64.785,0 z M 384.203,358.521 c 0,7.198 55.872,11.312 52.787,-1.714 -4.456,-21.938 -46.617,-20.224 -52.787,1.714 z m -238.229,38.048 c 12.683,10.969 31.878,-2.399 38.048,-17.824 -12.34,-16.11 -57.929,1.028 -38.048,17.824 z m 231.373,-22.966 c -15.768,14.397 2.742,29.479 18.167,19.538 4.113,-2.742 -0.343,-16.11 -18.167,-19.538 z"
    style="fill:#ffffff"/>
</svg>
