<svg
  xmlns="http://www.w3.org/2000/svg"
  width="512"
  height="512"
  viewBox="0 0 512 512">
  <path
     d="m 265.93,64 c -41.667,1.375 -84.183,-3.251 -125.086,6.62 -40.578,9.984 -70.111,47.801 -73.974,88.801 -4.638,50.316 -2.221,100.998 -2.387,151.461 -0.13,35.781 3.377,75.54 29.696,102.571 26.992,30.526 70.203,34.851 108.429,34.06 51.153,0.126 102.552,2.098 153.519,-2.913 39.308,-5.052 74.901,-33.599 84.896,-72.546 9.743,-37.854 5.561,-77.469 6.977,-116.135 -1.503,-39.853 3.194,-80.889 -8.106,-119.676 -11.48,-38.58 -48.197,-65.647 -87.639,-69.523 -28.631,-3.127 -57.567,-2.34 -86.324,-2.72 z m -30.994,34.377 c 40.692,1.041 81.831,-2.334 122.195,4.027 27.079,4.842 48.722,27.65 52.884,54.725 5.423,39.468 2.928,79.585 3.602,119.335 -1.931,32.303 3.528,66.492 -9.587,97.085 -11.821,27.14 -42.43,38.798 -70.315,38.825 -52.965,1.631 -106.056,1.888 -159.003,-0.245 -28.757,-0.263 -59.374,-15.308 -68.969,-43.925 -10.145,-32.022 -6.293,-66.255 -7.21,-99.36 0.658,-38.302 -2.245,-77.064 4.145,-114.983 5.342,-29.297 31.986,-50.471 60.987,-53.027 23.622,-2.633 47.537,-2.147 71.272,-2.457 z m 122.951,32.38 c -19.563,-0.758 -30.439,26.323 -15.751,39.304 13.259,14.58 40.231,3.133 39.072,-16.5 0.246,-12.423 -10.968,-23.203 -23.321,-22.804 z m -100.311,26.777 c -38.532,-0.791 -76.376,22.386 -91.331,58.265 -21.747,44.612 -1.617,103.134 41.978,126.287 41.974,24.313 100.227,11.204 127.711,-28.696 29.712,-39.463 22.664,-100.415 -15.507,-131.922 -17.255,-15.073 -39.912,-23.824 -62.851,-23.934 z m -1.067,34.281 c 36.069,-0.829 67.125,33.32 63.491,69.11 -1.715,38.865 -44.436,68.767 -81.579,56.709 -36.64,-9.135 -57.429,-53.986 -40.946,-87.883 9.99,-22.905 34.017,-38.439 59.034,-37.936 z"
    style="fill:#ffffff"/>
</svg>
