<svg
  xmlns="http://www.w3.org/2000/svg"
  width="512"
  height="512"
  viewBox="0 0 512 512">
  <path
    d="m 64,256 c 0,63.805 51.783,115.588 115.588,115.588 36.145,0 68.453,-16.675 89.663,-42.685 l -16.638,-35.172 c -13.62,26.051 -41.59,43.841 -73.026,43.841 -45.054,0 -81.655,-36.518 -81.655,-81.572 0,-44.178 37.225,-81.655 81.655,-81.655 31.414,0 61.13,16.934 75.675,50.238 10.279,23.538 25.108,57.962 43.162,97.908 17.971,39.764 48.827,48.106 78.819,48.106 C 399.067,370.597 448,353.358 448,300.832 c 0,-36.987 -21.46,-50.542 -42.19,-57.712 -15.235,-5.269 -23.927,-7.726 -44.584,-15.439 -12.462,-4.654 -21.301,-12.813 -21.301,-27.328 -4e-5,-30.874 43.9,-34.971 63.243,-9.495 l 24.521,-13.21 c -11.205,-18.282 -24.788,-33.438 -58.042,-33.438 -34.11,0 -60.353,20.983 -60.353,57.546 0,33.588 20.717,46.938 43.428,56.556 14.284,6.049 32.011,12.27 47.143,17.999 29.442,11.146 15.442,61.757 -25.017,61.757 -27.749,0 -39.849,-12.912 -45.534,-25.335 C 316.81,285.408 295.355,236.821 281.558,204.375 266.84,169.763 229.193,140.412 179.588,140.412 117.138,140.412 64,192.031 64,256 Z"
    style="fill:#ffffff"/>
</svg>
