<?xml version="1.0" encoding="UTF-8" standalone="no"?>
<svg
  xmlns="http://www.w3.org/2000/svg"
  version="1.1"
  width="512"
  height="512"
  viewBox="0 0 512 512">
  <g
    style="fill:#ffffff">
    <path
      d="m 64,256.60379 111.18218,0 L 175.44195,420 76.46903,420 z"/>
    <path
      d="m 286.99762,96.10705 0,0.0872 c -5.01047,0.12242 -10.26554,1.70111 -14.82159,5.40551 l 0,55.49375 c -16.85564,33.01743 -35.8555,64.79459 -59.32993,94.02986 l -10.81103,7.54157 0,-0.0436 -11.33415,7.71594 0.0436,128.72979 0,0.0436 11.29056,0 4.01054,0 c 0,0 20.33734,12.43424 21.40412,11.90085 1.22378,0.61189 74.20001,0.59571 120.57795,0.52312 -0.0265,0.0278 -0.0608,0.0595 -0.0872,0.0872 l 38.88486,0.0872 c 6.04826,0.30314 27.72278,-14.56132 24.80436,-29.73035 -0.0125,-0.0708 -0.03,-0.14715 -0.0436,-0.21796 -0.10392,-0.49917 -0.23329,-1.02659 -0.39233,-1.52575 -0.0267,-0.0874 -0.0587,-0.17418 -0.0872,-0.26156 -0.0205,-0.0606 -0.0658,-0.11373 -0.0872,-0.17437 -0.17988,-0.52792 -0.3632,-1.0435 -0.6103,-1.56935 -0.22186,-0.46381 -0.46556,-0.93329 -0.74108,-1.39497 -0.0676,-0.11408 -0.14696,-0.23486 -0.21797,-0.34874 -0.0533,-0.0847 -0.11922,-0.17695 -0.17437,-0.26156 -0.96837,-1.49524 -2.22344,-3.00282 -3.83617,-4.44647 -0.096,-0.0589 -0.17356,-0.10711 -0.26156,-0.17438 -0.0952,-0.0841 -0.16409,-0.17763 -0.26156,-0.26155 -0.10547,-0.0908 -0.21499,-0.1585 -0.30515,-0.26156 -0.0324,-0.0397 -0.0564,-0.0897 -0.0872,-0.13078 -0.0809,-0.10286 -0.15027,-0.2365 -0.21797,-0.34874 -0.22097,-0.37199 -0.37257,-0.78421 -0.47952,-1.2206 -0.26154,-1.24854 -0.0873,-2.69629 0.34874,-3.79258 0.31765,-0.69636 0.80899,-1.28588 1.39498,-1.70013 0.03,-0.009 0.057,-0.0382 0.0872,-0.0436 0.73476,-0.13185 1.51111,-0.37306 2.31043,-0.69749 0.26476,-0.0996 0.51973,-0.18874 0.78467,-0.30515 0.11666,-0.0546 0.23131,-0.11614 0.34874,-0.17437 3.30371,-1.54691 6.58575,-4.37001 9.1981,-7.84672 0.14866,-0.18837 0.29095,-0.37435 0.43593,-0.5667 0.0309,-0.0433 0.0564,-0.0873 0.0872,-0.13078 5.97609,-8.01079 8.63004,-19.29924 -1.70012,-27.68149 -1.16853,-0.94819 -2.1464,-5.61058 2.13605,-7.67234 0.0864,-0.0165 0.17308,-0.0339 0.26156,-0.0436 0.57007,-0.27527 1.17532,-0.60477 1.78731,-0.95904 9.13209,-4.70329 15.49959,-13.17261 14.42924,-23.10423 -0.04,-0.46372 -0.0979,-0.92296 -0.17437,-1.39497 -0.0172,-0.0975 -0.025,-0.20739 -0.0436,-0.30515 -0.0669,-0.37429 -0.17063,-0.75421 -0.26156,-1.13342 -0.032,-0.13061 -0.0526,-0.26133 -0.0872,-0.39233 -0.0855,-0.32731 -0.20109,-0.67188 -0.30515,-1.00264 -0.0586,-0.1863 -0.11044,-0.37971 -0.17438,-0.56671 -0.0294,-0.0852 -0.0565,-0.17616 -0.0872,-0.26156 -0.92241,-2.60056 -2.36437,-5.28535 -4.40288,-7.97749 -1.51578,-0.85387 -2.25334,-2.16289 -2.31043,-3.48743 0.003,-0.34145 0.0471,-0.70237 0.13078,-1.04623 0.23176,-1.09178 0.8673,-2.08186 1.8745,-2.70276 0.26845,-0.08 0.52221,-0.17536 0.78467,-0.26156 1.11455,-0.25496 2.23474,-0.71566 3.35665,-1.30779 0.22462,-0.10682 0.4347,-0.23703 0.65389,-0.34874 0.10148,-0.0591 0.20394,-0.11287 0.30515,-0.17437 18.32115,-9.64033 17.21341,-36.24034 -2.87713,-38.75408 l -48.38811,-0.0872 c 0.0446,0.0424 0.0866,0.0881 0.13078,0.13078 l -74.8054,-0.0436 c 0.56162,-2.53893 1.16851,-5.17258 1.74371,-7.80313 0.16013,-0.70785 0.32248,-1.42402 0.47952,-2.13605 4.33704,-19.95769 8.6348,-41.75161 9.1981,-58.41446 0.17873,-2.73692 0.18761,-5.2952 -0.0436,-7.75954 -0.0232,-0.44373 -0.0124,-0.91924 -0.0436,-1.35138 -0.12529,-0.66462 -0.29652,-1.36723 -0.43593,-2.04886 -1.34004,-7.33206 -3.39316,-14.32031 -5.84145,-21.14255 -2.93081,-8.58529 -6.76018,-17.98878 -11.6393,-28.16101 -5.4498,-3.69694 -9.98866,-4.62084 -15.47548,-4.62084 z"/>
  </g>
</svg>
