<svg
  xmlns="http://www.w3.org/2000/svg"
  width="512"
  height="512"
  viewBox="0 0 512 512">
  <path
    d="M 287 96.094 L 287 96.188 C 281.99 96.31 276.744 97.889 272.188 101.594 L 272.188 157.094 C 255.332 190.111 236.318 221.89 212.844 251.125 L 202.031 258.656 L 202.031 258.625 L 190.688 266.344 L 190.75 395.063 L 190.75 395.125 L 202.031 395.125 L 206.031 395.125 C 206.031 395.125 226.371 407.533 227.438 407 C 228.661 407.612 301.653 407.604 348.031 407.531 C 348.005 407.559 347.964 407.597 347.938 407.625 L 386.813 407.719 C 392.861 408.022 414.543 393.138 411.625 377.969 C 411.613 377.898 411.607 377.821 411.594 377.75 C 411.49 377.251 411.347 376.749 411.188 376.25 C 411.161 376.163 411.122 376.056 411.094 375.969 C 411.073 375.908 411.053 375.873 411.031 375.813 C 410.851 375.285 410.653 374.745 410.406 374.219 C 410.184 373.755 409.932 373.305 409.656 372.844 C 409.589 372.73 409.509 372.614 409.438 372.5 C 409.384 372.415 409.336 372.303 409.281 372.219 C 408.313 370.724 407.05 369.225 405.438 367.781 C 405.342 367.722 405.276 367.661 405.188 367.594 C 405.092 367.51 405.004 367.428 404.906 367.344 C 404.801 367.253 404.715 367.197 404.625 367.094 C 404.593 367.054 404.562 366.979 404.531 366.938 C 404.45 366.835 404.38 366.706 404.313 366.594 C 404.092 366.222 403.919 365.811 403.813 365.375 C 403.551 364.126 403.751 362.69 404.188 361.594 C 404.505 360.897 404.977 360.289 405.563 359.875 C 405.592 359.866 405.626 359.849 405.656 359.844 C 406.391 359.712 407.169 359.481 407.969 359.156 C 408.234 359.057 408.485 358.96 408.75 358.844 C 408.867 358.789 408.976 358.714 409.094 358.656 C 412.397 357.109 415.7 354.289 418.313 350.813 C 418.461 350.624 418.605 350.442 418.75 350.25 C 418.781 350.207 418.782 350.168 418.813 350.125 C 424.789 342.114 427.455 330.82 417.125 322.438 C 415.956 321.489 414.968 316.843 419.25 314.781 C 419.336 314.765 419.443 314.728 419.531 314.719 C 420.101 314.443 420.701 314.136 421.313 313.781 C 430.445 309.078 436.82 300.588 435.75 290.656 C 435.71 290.193 435.639 289.753 435.563 289.281 C 435.545 289.184 435.55 289.067 435.531 288.969 C 435.464 288.594 435.341 288.223 435.25 287.844 C 435.218 287.713 435.191 287.568 435.156 287.438 C 435.071 287.11 434.979 286.768 434.875 286.438 C 434.816 286.251 434.751 286.062 434.688 285.875 C 434.658 285.79 434.624 285.679 434.594 285.594 C 433.671 282.993 432.226 280.317 430.188 277.625 C 428.672 276.771 427.932 275.45 427.875 274.125 C 427.878 273.784 427.948 273.438 428.031 273.094 C 428.263 272.002 428.899 271.027 429.906 270.406 C 430.175 270.326 430.425 270.211 430.688 270.125 C 431.802 269.87 432.909 269.405 434.031 268.813 C 434.256 268.706 434.468 268.58 434.688 268.469 C 434.789 268.41 434.899 268.374 435 268.313 C 453.321 258.672 452.216 232.045 432.125 229.531 L 383.719 229.469 C 383.763 229.511 383.831 229.551 383.875 229.594 L 309.063 229.531 C 309.624 226.992 310.237 224.381 310.813 221.75 C 310.973 221.042 311.124 220.306 311.281 219.594 C 315.618 199.636 319.905 177.85 320.469 161.188 C 320.647 158.451 320.669 155.902 320.438 153.438 C 320.414 152.994 320.406 152.526 320.375 152.094 C 320.25 151.429 320.108 150.713 319.969 150.031 C 318.629 142.699 316.573 135.697 314.125 128.875 C 311.194 120.29 307.348 110.891 302.469 100.719 C 297.019 97.022 292.487 96.094 287 96.094 z M 64 256.594 L 76.469 420 L 175.438 420 L 175.188 256.594 L 64 256.594 z"
     style="fill:#ffffff"/>
</svg>
