
<svg
  xmlns="http://www.w3.org/2000/svg"
  width="512"
  height="512"
  viewBox="0 0 512 512">
  <path
    d="m 365.222,211.622 q 6.438,0 12.417,2.529 5.978,2.529 10.347,6.898 4.599,4.139 7.128,9.887 2.759,5.519 2.759,11.727 l 0,173.145 q 0,6.668 -2.529,12.417 -2.299,5.749 -6.668,10.117 -4.369,4.599 -10.117,7.128 Q 372.81,448 366.371,448 l -220.053,0 q -6.668,0 -12.647,-2.529 -5.749,-2.529 -10.117,-7.128 -4.369,-4.369 -6.898,-10.117 -2.529,-5.749 -2.529,-12.417 l 0,-173.145 q 0,-6.208 2.529,-11.727 2.759,-5.749 7.128,-9.887 4.599,-4.369 10.347,-6.898 5.749,-2.529 12.187,-2.529 l 0,-37.25 q 0,-23.454 3.909,-43.689 3.909,-20.235 15.636,-34.951 Q 177.82,80.786 199.205,72.508 220.819,64 256,64 q 35.411,0 56.795,8.508 21.614,8.278 33.111,23.224 11.727,14.716 15.406,34.951 3.909,20.235 3.909,43.689 l 0,37.25 z m -171.995,-37.25 0,36.101 125.547,0 0,-36.101 q 0,-17.475 -1.38,-29.432 -1.38,-12.187 -7.588,-19.545 -5.978,-7.358 -18.625,-10.577 Q 278.534,111.598 256,111.598 q -22.304,0 -34.951,3.219 -12.417,3.219 -18.625,10.577 -6.208,7.358 -7.818,19.545 -1.38,11.957 -1.38,29.432 z"
    style="fill:#ffffff"/>
</svg>
