<svg
  xmlns="http://www.w3.org/2000/svg"
  width="512"
  height="512"
  viewBox="0 0 512 512">
  <path
    d="m 256,64 c -70.692,0 -128,57.308 -128,128 0,64 80,256 128,256 48,0 128,-192 128,-256 C 384,121.308 326.692,64 256,64 Z m 0,32 c 53.019,0 96,42.981 96,96 0,53.019 -42.981,96 -96,96 -53.019,0 -96,-42.981 -96,-96 0,-53.019 42.981,-96 96,-96 z m 0,40 c -30.928,0 -56,25.072 -56,56 0,30.928 25.072,56 56,56 30.928,0 56,-25.072 56,-56 0,-30.928 -25.072,-56 -56,-56 z"
    style="fill:#ffffff"/>
</svg>
