<?xml version="1.0" encoding="UTF-8" standalone="no"?>
<svg
  xmlns="http://www.w3.org/2000/svg"
  version="1.1"
  width="512"
  height="512"
  viewBox="0 0 512 512">
  <path
    d="m 256,64 c -70.69245,0 -128,57.30755 -128,128 0,64 80,256 128,256 48,0 128,-192 128,-256 C 384,121.30755 326.69245,64 256,64 Z m 0,32 c 53.01934,0 96,42.98066 96,96 0,53.01934 -42.98066,96 -96,96 -53.01934,0 -96,-42.98066 -96,-96 0,-53.01934 42.98066,-96 96,-96 z m 0,40 c -30.92795,0 -56,25.07205 -56,56 0,30.92795 25.07205,56 56,56 30.92795,0 56,-25.07205 56,-56 0,-30.92795 -25.07205,-56 -56,-56 z"
    style="fill:#ffffff"/>
</svg>
