<svg
  xmlns="http://www.w3.org/2000/svg"
  width="512"
  height="512"
  viewBox="0 0 512 512">
  <path
    d="m 325.928,111.451 a 8.001,8.001 0 0 0 -6.604,3.937 l -67.344,114.469 a 8.001,8.001 0 0 0 0.239,8.494 l 61.125,91.688 a 8.001,8.001 0 0 0 13.312,0 l 104.631,-156.953 a 8.001,8.001 0 0 0 -3.078,-11.594 l -98.412,-49.203 a 8.001,8.001 0 0 0 -3.869,-0.838 z m -246.219,4.89 a 8.001,8.001 0 0 0 -7.709,7.995 l 0,220.218 a 8.001,8.001 0 0 0 4.422,7.157 l 96,48 a 8.001,8.001 0 0 0 11.578,-7.157 l 0,-220.218 a 8.001,8.001 0 0 0 -4.422,-7.157 l -96,-48 a 8.001,8.001 0 0 0 -3.869,-0.838 z m 128.152,90.952 a 8.001,8.001 0 0 0 -7.861,7.996 l 0,61.547 a 8.001,8.001 0 0 0 4.246,7.064 l 63.531,33.75 a 8.001,8.001 0 0 0 10.411,-11.502 l -63.532,-95.297 a 8.001,8.001 0 0 0 -6.795,-3.558 z m 223.903,0.002 a 8.001,8.001 0 0 0 -6.42,3.556 l -88.633,132.953 a 8.001,8.001 0 0 0 3.078,11.594 l 88.633,44.313 a 8.001,8.001 0 0 0 11.578,-7.157 l 0,-177.265 a 8.001,8.001 0 0 0 -8.236,-7.994 z"
    style="fill:#ffffff"/>
</svg>
