<?xml version="1.0" encoding="UTF-8" standalone="no"?>
<svg
  xmlns="http://www.w3.org/2000/svg"
  version="1.1"
  width="512"
  height="512"
  viewBox="0 0 512 512">
  <path
    d="M 325.928 141.006 A 8.001 8.001 0 0 0 319.324 144.943 L 251.98 259.412 A 8.001 8.001 0 0 0 252.219 267.906 L 313.344 359.594 A 8.001 8.001 0 0 0 326.656 359.594 L 431.287 202.641 A 8.001 8.001 0 0 0 428.209 191.047 L 329.797 141.844 A 8.001 8.001 0 0 0 325.928 141.006 z M 79.709 145.896 A 8.001 8.001 0 0 0 72 153.891 L 72 374.109 A 8.001 8.001 0 0 0 76.422 381.266 L 172.422 429.266 A 8.001 8.001 0 0 0 184 422.109 L 184 201.891 A 8.001 8.001 0 0 0 179.578 194.734 L 83.578 146.734 A 8.001 8.001 0 0 0 79.709 145.896 z M 207.861 236.848 A 8.001 8.001 0 0 0 200 244.844 L 200 306.391 A 8.001 8.001 0 0 0 204.246 313.455 L 267.777 347.205 A 8.001 8.001 0 0 0 278.188 335.703 L 214.656 240.406 A 8.001 8.001 0 0 0 207.861 236.848 z M 431.764 236.85 A 8.001 8.001 0 0 0 425.344 240.406 L 336.711 373.359 A 8.001 8.001 0 0 0 339.789 384.953 L 428.422 429.266 A 8.001 8.001 0 0 0 440 422.109 L 440 244.844 A 8.001 8.001 0 0 0 431.764 236.85 z"
    style="fill:#ffffff"/>
</svg>
