<?xml version="1.0" encoding="UTF-8" standalone="no"?>
<svg
  xmlns="http://www.w3.org/2000/svg"
  version="1.1"
  width="512"
  height="512"
  viewBox="0 0 512 512">
  <g
    style="fill:#ffffff">
    <path
      d="m 80,224 a 16,16 0 0 0 -16,16 l 0,32 a 16,16 0 0 0 16,16 l 352,0 a 16,16 0 0 0 16,-16 l 0,-32 a 16,16 0 0 0 -16,-16 l -352,0 z"/>
    <path
      d="m 80,352 a 16,16 0 0 0 -16,16 l 0,32 a 16,16 0 0 0 16,16 l 352,0 a 16,16 0 0 0 16,-16 l 0,-32 a 16,16 0 0 0 -16,-16 l -352,0 z"/>
    <path
      d="m 80,96 a 16,16 0 0 0 -16,16 l 0,32 a 16,16 0 0 0 16,16 L 432,160 a 16,16 0 0 0 16,-16 l 0,-32 A 16,16 0 0 0 432,96 L 80,96 z"/>
  </g>
</svg>
