<?xml version="1.0" encoding="UTF-8" standalone="no"?>
<svg
  xmlns="http://www.w3.org/2000/svg"
  version="1.1"
  width="512"
  height="512"
  viewBox="0 0 512 512">
  <path
    d="M 256 64 A 32 32 0 0 0 224 96 A 32 32 0 0 0 224.46484 101.44336 A 96 96 0 0 0 160 192 L 160 288 L 64 368 L 64 384 L 448 384 L 448 368 L 352 288 L 352 192 A 96 96 0 0 0 287.50195 101.42969 A 32 32 0 0 0 288 96 A 32 32 0 0 0 256 64 z M 208 400 A 48 48 0 0 0 256 448 A 48 48 0 0 0 304 400 L 208 400 z "
    style="fill:#ffffff"/>
</svg>
