<?xml version="1.0" encoding="UTF-8" standalone="no"?>
<svg
  xmlns="http://www.w3.org/2000/svg"
  version="1.1"
  width="512"
  height="512"
  viewBox="0 0 512 512">
  <path
    d="m 305.84615,166.92308 q 0,-36.69231 -54.6923,-36.69231 l -16.15385,0 q -7.38462,0 -13.73077,4.96154 -6.34615,4.96154 -7.96154,12.11538 L 198.76923,211 q -0.46154,1.15385 -0.46154,3.69231 0,5.53846 3.92308,9.11538 3.92308,3.57693 9.46154,3.57693 l 12.23077,0 q 15.92307,0 29.65384,-3 13.73077,-3 25.96154,-9.46154 12.23077,-6.46154 19.26923,-18.8077 7.03846,-12.34615 7.03846,-29.1923 z M 445.23077,202 q 0,61.15385 -50.76923,98.76923 -50.53846,37.15385 -141.23077,37.15385 l -14.07692,0 q -7.38462,0 -13.61539,4.96154 -6.23077,4.96153 -7.84615,12.11538 l -16.84616,72.92308 Q 199,436.23077 191.5,442.11538 184,448 175.46154,448 l -49.15385,0 q -7.15384,0 -12.23077,-4.61538 Q 109,438.76923 109,431.61538 q 0,-2.30769 3,-15 l 34.84615,0 q 7.84616,0 14.76923,-5.42307 6.92308,-5.42308 8.76923,-13.03846 l 16.84616,-72.92308 q 1.84615,-7.61538 8.65384,-13.15385 6.8077,-5.53846 14.65385,-5.53846 l 14.07692,0 q 90,0 140.07693,-36.92307 50.07692,-36.92308 50.07692,-97.15385 0,-29.76923 -11.76923,-47.76923 Q 445.23077,145.92308 445.23077,202 Z M 403,159.30769 q 0,60.92308 -51,98.76923 -50.30769,37.15385 -141.23077,37.15385 l -13.84615,0 q -7.38462,0 -13.73077,5.07692 -6.34616,5.07693 -7.96154,12.23077 l -16.84616,72.69231 q -1.84615,8.30769 -9.23076,14.19231 -7.38462,5.88461 -15.92308,5.88461 l -49.38462,0 q -7.15384,0 -12.11538,-4.5 -4.96154,-4.5 -4.96154,-11.88461 0,-1.84616 0.46154,-4.61539 L 136.46154,84.07692 q 1.84615,-8.30769 9.34615,-14.1923 Q 153.30769,64 161.84615,64 l 102.46154,0 q 15.69231,0 28.84616,0.92308 13.15384,0.92307 27.80769,3.46154 14.65384,2.53846 26.19231,6.92307 11.53846,4.38462 22.26923,11.65385 10.73077,7.26923 17.88461,17.07692 7.15385,9.80769 11.42308,23.88462 Q 403,142 403,159.30769 Z"
    style="fill:#ffffff" />
</svg>
