<svg
  xmlns="http://www.w3.org/2000/svg"
  width="512"
  height="512"
  viewBox="0 0 512 512">
  <path
    d="m 305.846,166.923 q 0,-36.692 -54.692,-36.692 l -16.154,0 q -7.385,0 -13.731,4.962 -6.346,4.962 -7.962,12.115 L 198.769,211 q -0.462,1.154 -0.462,3.692 0,5.538 3.923,9.115 3.923,3.577 9.462,3.577 l 12.231,0 q 15.923,0 29.654,-3 13.731,-3 25.962,-9.462 12.231,-6.462 19.269,-18.808 7.038,-12.346 7.038,-29.192 z M 445.231,202 q 0,61.154 -50.769,98.769 -50.538,37.154 -141.231,37.154 l -14.077,0 q -7.385,0 -13.615,4.962 -6.231,4.962 -7.846,12.115 l -16.846,72.923 Q 199,436.231 191.5,442.115 184,448 175.462,448 l -49.154,0 q -7.154,0 -12.231,-4.615 Q 109,438.769 109,431.615 q 0,-2.308 3,-15 l 34.846,0 q 7.846,0 14.769,-5.423 6.923,-5.423 8.769,-13.038 l 16.846,-72.923 q 1.846,-7.615 8.654,-13.154 6.808,-5.538 14.654,-5.538 l 14.077,0 q 90,0 140.077,-36.923 50.077,-36.923 50.077,-97.154 0,-29.769 -11.769,-47.769 Q 445.231,145.923 445.231,202 Z M 403,159.308 q 0,60.923 -51,98.769 -50.308,37.154 -141.231,37.154 l -13.846,0 q -7.385,0 -13.731,5.077 -6.346,5.077 -7.962,12.231 l -16.846,72.692 q -1.846,8.308 -9.231,14.192 -7.385,5.885 -15.923,5.885 l -49.385,0 q -7.154,0 -12.115,-4.5 -4.962,-4.5 -4.962,-11.885 0,-1.846 0.462,-4.615 L 136.462,84.077 q 1.846,-8.308 9.346,-14.192 Q 153.308,64 161.846,64 l 102.462,0 q 15.692,0 28.846,0.923 13.154,0.923 27.808,3.462 14.654,2.538 26.192,6.923 11.538,4.385 22.269,11.654 10.731,7.269 17.885,17.077 7.154,9.808 11.423,23.885 Q 403,142 403,159.308 Z"
    style="fill:#ffffff" />
</svg>
