<svg
  xmlns="http://www.w3.org/2000/svg"
  width="512"
  height="512"
  viewBox="0 0 512 512">
  <path
    d="m 254.068,64 c -5.36,0 -10.719,0.841 -15.861,2.382 -6.071,1.829 -12.092,3.991 -18.39,4.874 -7.285,1.026 -13.172,0.666 -20.265,-0.917 -4.238,-0.938 -5.402,-1.315 -9.64,-2.224 -2.32,-0.489 -8.726,-2.333 -10.719,-0.343 -4.765,4.769 5.402,10.573 8.399,12.758 6.649,4.824 9.429,6.415 15.736,11.887 8.575,7.42 15.366,16.259 17.963,27.338 0.762,3.207 0.997,6.432 1.03,9.723 0.645,47.826 -79.162,94.775 -78.048,179.444 0.386,29.946 16.379,34.888 16.161,18.272 -0.26,-19.747 6.742,-41.025 13.994,-59.306 1.674,-4.229 7.035,-5.477 5.838,1.808 -1.918,11.624 -6.641,31.655 -6.213,64.398 0.1,7.889 0.577,15.86 1.715,23.664 0.921,6.289 2.279,12.537 4.113,18.642 1.55,5.125 3.516,10.1 6.037,14.832 1.977,3.71 4.288,7.261 7,10.493 2.671,3.173 5.56,5.509 8.784,8.063 1.884,1.457 3.978,2.771 4.866,5.142 1.315,3.433 -3.081,4.8 -5.384,5.872 -2.537,1.139 -4.782,2.41 -7.202,3.582 -3.45,1.692 -6.859,3.466 -10.209,5.343 -2.077,1.155 -4.372,1.86 -6.373,3.199 -1.977,1.315 -2.981,3.425 0.084,3.937 1.423,0.227 2.914,-0.167 4.354,-0.217 2.42,-0.101 4.975,-0.427 7.287,0.469 3.149,1.223 2.988,4.221 3.114,7.135 0.143,3.173 2.336,4.17 5.109,3.415 3.266,-0.904 5.535,-3.399 8.031,-5.51 1.8,-1.548 3.794,-3.165 5.937,-4.204 4.322,-2.144 9.464,-1.457 14.094,-1.205 2.571,0.134 6.204,1.205 8.282,-0.888 2.144,-2.127 0.603,-5.811 -0.343,-8.149 -0.896,-2.236 -1.968,-4.396 -3.09,-6.557 -0.494,-0.98 -1.213,-1.86 -1.657,-2.882 -1.817,-4.162 12.72,-7.327 14.831,-7.904 7.034,-1.884 14.412,-3.551 21.697,-4.162 6.892,-0.603 14.512,-0.619 21.036,2.068 2.78,1.156 5.074,3.149 6.942,5.494 1.046,1.323 3.45,5.209 1.29,6.8 -3.341,2.428 -6.791,4.572 -10.057,7.135 -2.061,1.607 -4.07,3.299 -5.787,5.259 -1.315,1.49 -1.666,4.088 0.988,3.937 3.516,-0.167 7.034,-0.369 10.551,-0.385 2.512,-0.017 5.217,0.336 7.352,1.776 3.458,2.345 4.197,7.352 8.082,9.279 1.113,0.552 2.42,0.535 3.601,0.175 2.554,-0.771 3.735,-3.425 5.092,-5.468 1.265,-1.893 2.554,-3.702 4.571,-4.824 1.256,-0.686 2.69,-0.971 4.121,-0.971 2.571,0 5.167,0.049 7.729,0.351 2.027,0.234 4.807,1.181 6.608,-0.209 3.409,-2.638 -5.544,-8.492 -7.327,-9.606 -4.112,-2.613 -9.941,-5.242 -11.231,-10.518 -1.49,-6.172 1.567,-12.579 4.138,-18.022 2.722,-5.745 6.432,-11.037 8.575,-17.083 1.951,-5.552 3.425,-11.338 4.254,-17.183 4.498,-32.04 -2.93,-66.115 -12.285,-96.69 -1.131,-3.668 -2.571,-7.285 -3.626,-10.97 -1.633,-5.745 3.969,-7.135 6.824,-1.494 2.747,5.405 20.668,39.848 25.901,65.491 3.325,16.313 15.601,16.981 15.259,-12.028 -0.461,-41.948 -16.308,-72.334 -35.689,-103.199 -14.102,-22.443 -33.865,-48.965 -36.076,-76.269 -1.39,-17.125 -0.386,-36.273 -11.918,-50.421 -3.341,-4.116 -8.08,-7.914 -12.778,-10.376 -5.042,-2.592 -11.516,-4.254 -17.202,-4.254 z m 3.51,12.487 c 2.309,0.025 4.565,0.651 6.557,1.944 6.373,4.142 7.631,13.53 2.798,20.971 -4.833,7.44 -13.918,10.111 -20.291,5.974 -6.373,-4.141 -7.63,-13.529 -2.798,-20.97 3.322,-5.113 8.655,-7.974 13.734,-7.92 z m 1.482,10.664 c -2.305,-0 -4.795,1.353 -6.43,3.751 -2.387,3.493 -2.052,7.864 0.736,9.765 2.788,1.905 6.984,0.62 9.363,-2.872 2.378,-3.489 2.051,-7.859 -0.738,-9.765 -0.874,-0.594 -1.883,-0.877 -2.931,-0.879 z m 18.207,10.557 c 0.603,0.034 1.391,0.476 2.402,1.666 l 0,0 c 4.748,5.573 4.471,28.556 -3.299,36.529 -4.565,4.677 -12.269,5.267 -18.357,6.135 -6.775,0.942 -13.308,2.44 -19.94,4.082 -6.289,1.541 -5.877,-5.145 0.21,-9.906 9.086,-7.118 31.88,-10.31 37.34,-36.831 0.141,-0.644 0.63,-1.722 1.635,-1.666 z m -20.031,59.621 c 6.241,-0.09 12.464,1.133 17.601,3.771 23.214,11.9 22.645,39.598 23.381,62.141 0.561,17.323 2.738,35.159 5.861,52.226 3.467,18.951 11.171,37.007 13.165,56.268 l 0,0 c 2.186,21.136 4.523,57.632 -21.27,58.829 -6.858,0.344 -15.325,-4.464 -27.995,-3.576 -21.505,1.457 -27.886,9.689 -45.448,6.532 -10.048,-1.8 -17.493,-7.453 -21.697,-17.2 -4.798,-11.063 -5.233,-23.616 -5.988,-35.499 -0.829,-13.307 -0.829,-26.673 -0.025,-39.963 0.586,-9.621 1.607,-19.21 2.863,-28.749 2.111,-15.869 5.478,-31.513 9.095,-47.084 3.191,-13.746 6.481,-27.48 12.401,-40.343 4.346,-9.417 10.811,-18.456 20.35,-23.242 5.213,-2.615 11.473,-4.019 17.714,-4.11 z"
    style="fill:#ffffff"/>
</svg>
