<?xml version="1.0" encoding="UTF-8" standalone="no"?>
<svg
  xmlns="http://www.w3.org/2000/svg"
  version="1.1"
  width="512"
  height="512"
  viewBox="0 0 512 512">
  <path
    d="m 385.119,363.234 c 32.705,-0.881 59.209,-11.52 79.514,-31.915 C 484.936,310.924 495.392,286.061 496,256.729 495.483,224.465 485.756,198.538 466.821,178.948 447.884,159.359 422.838,149.298 391.684,148.766 362.185,149.663 336.744,157.9 315.362,173.477 293.978,189.055 274.191,206.593 256,226.091 c -17.31,-18.541 -36.49,-35.805 -57.538,-51.793 -21.049,-15.988 -45.152,-24.498 -72.31,-25.532 -32.356,0.851 -58.648,11.551 -78.875,32.097 C 27.049,201.411 16.623,226.699 16,256.729 c 0.517,31.566 10.243,57.067 29.179,76.505 18.936,19.438 43.982,29.438 75.137,30 29.498,-0.912 54.939,-9.118 76.322,-24.62 21.383,-15.501 41.17,-32.827 59.362,-51.976 17.325,18.192 36.474,35.243 57.447,51.155 20.972,15.912 44.863,24.392 71.672,25.441 z m 1.459,-43.039 c -21.277,-1.049 -40,-8.435 -56.17,-22.158 -16.171,-13.723 -31.247,-27.492 -45.228,-41.307 13.814,-15.152 29.225,-29.529 46.231,-43.131 17.006,-13.602 35.881,-20.866 56.626,-21.793 18.221,0.38 33.024,6.55 44.407,18.511 11.383,11.961 17.249,27.432 17.599,46.413 -0.411,17.645 -6.52,32.508 -18.328,44.59 -11.809,12.082 -26.855,18.374 -45.137,18.875 z m -261.884,0 c -18.572,-0.365 -33.587,-6.383 -45.046,-18.055 -11.459,-11.672 -17.356,-26.808 -17.69,-45.41 0.395,-18.024 6.535,-33.222 18.419,-45.593 11.884,-12.371 27.143,-18.814 45.775,-19.331 20.927,1.064 39.437,8.602 55.532,22.614 16.094,14.012 31.14,28.116 45.137,42.31 -13.83,15.091 -29.21,29.225 -46.14,42.401 -16.93,13.176 -35.593,20.198 -55.988,21.064 z"
    style="fill:#ffffff"/>
</svg>
