<svg
  xmlns="http://www.w3.org/2000/svg"
  width="512"
  height="512"
  viewBox="0 0 512 512">
  <path
    d="m 359.295,341.787 c 26.164,-0.705 47.367,-9.216 63.611,-25.532 16.243,-16.316 24.607,-36.207 25.094,-59.672 -0.414,-25.811 -8.195,-46.553 -23.343,-62.225 -15.149,-15.671 -35.186,-23.72 -60.109,-24.146 -23.599,0.718 -43.952,7.307 -61.058,19.769 -17.107,12.462 -32.936,26.493 -47.489,42.091 -13.848,-14.833 -29.192,-28.644 -46.03,-41.435 -16.839,-12.79 -36.122,-19.599 -57.848,-20.426 -25.885,0.681 -46.918,9.24 -63.1,25.678 C 72.839,212.328 64.498,232.559 64,256.584 c 0.413,25.252 8.194,45.654 23.343,61.204 15.149,15.55 35.185,23.55 60.109,24 23.599,-0.729 43.951,-7.295 61.058,-19.696 17.106,-12.401 32.936,-26.261 47.489,-41.581 13.86,14.553 29.179,28.195 45.957,40.924 16.778,12.73 35.89,19.514 57.337,20.353 z m 1.167,-34.432 c -17.022,-0.839 -32,-6.748 -44.936,-17.726 -12.936,-10.979 -24.997,-21.994 -36.182,-33.046 11.051,-12.121 23.38,-23.623 36.985,-34.505 13.605,-10.881 28.705,-16.693 45.301,-17.435 14.577,0.304 26.419,5.24 35.526,14.809 9.106,9.569 13.799,21.945 14.079,37.131 -0.329,14.116 -5.216,26.006 -14.663,35.672 -9.447,9.666 -21.484,14.699 -36.109,15.1 z m -209.508,0 c -14.857,-0.292 -26.869,-5.106 -36.036,-14.444 -9.167,-9.337 -13.885,-21.447 -14.152,-36.328 0.316,-14.419 5.228,-26.577 14.736,-36.474 9.508,-9.896 21.714,-15.052 36.62,-15.465 16.741,0.851 31.55,6.882 44.426,18.091 12.875,11.21 24.912,22.493 36.109,33.848 -11.064,12.073 -23.368,23.38 -36.912,33.921 -13.544,10.541 -28.474,16.158 -44.79,16.851 z"
    style="fill:#ffffff"/>
</svg>
