<?xml version="1.0" encoding="UTF-8" standalone="no"?>
<svg
  xmlns="http://www.w3.org/2000/svg"
  version="1.1"
  width="512"
  height="512"
  viewbox="0 0 512 512">
  <path
    d="m 262.54664,61.465999 c -104.79458,0 -157.63281,75.133241 -157.63281,137.787551 0,37.93653 14.36277,71.68647 45.16813,84.26338 5.05134,2.06513 9.576,0.0711 11.04093,-5.52169 1.01909,-3.87057 3.42963,-13.6352 4.50506,-17.70175 1.47719,-5.53149 0.90395,-7.47168 -3.1724,-12.29275 -8.88273,-10.4775 -14.55875,-24.04166 -14.55875,-43.25489 0,-55.74117 41.70421,-105.642191 108.59656,-105.642191 59.23203,0 91.77425,36.192321 91.77425,84.527961 0,63.59746 -28.14496,117.2735 -69.92756,117.2735 -23.07401,0 -40.34706,-19.0834 -34.81067,-42.48813 6.62897,-27.94162 19.47046,-58.09781 19.47046,-78.26644 0,-18.05451 -9.69113,-33.11301 -29.74708,-33.11301 -23.58845,0 -42.53712,24.40177 -42.53712,57.09097 0,20.82027 7.03563,34.90132 7.03563,34.90132 0,0 -24.13965,102.2787 -28.37033,120.19113 -8.42708,35.67298 -1.26652,79.40312 -0.66143,83.81998 0.35521,2.61632 3.71869,3.23855 5.24242,1.26161 2.17536,-2.83923 30.26887,-37.52252 39.82037,-72.17886 2.70206,-9.81362 15.51415,-60.62838 15.51415,-60.62838 7.66275,14.61754 30.06064,27.49332 53.87937,27.49332 70.905,0 119.01037,-64.64104 119.01037,-151.16552 0,-65.42496 -55.41537,-126.357111 -139.63955,-126.357111 z"
    style="fill:#ffffff"/>
</svg>
