<svg
  xmlns="http://www.w3.org/2000/svg"
  width="512"
  height="512"
  viewBox="0 0 512 512">
  <path
    d="m 265.746,48 c -113.527,0 -170.769,81.394 -170.769,149.27 0,41.098 15.56,77.66 48.932,91.285 5.472,2.237 10.374,0.077 11.961,-5.982 1.104,-4.193 3.715,-14.771 4.88,-19.177 1.6,-5.992 0.979,-8.094 -3.437,-13.317 -9.623,-11.351 -15.772,-26.045 -15.772,-46.859 0,-60.386 45.18,-114.446 117.646,-114.446 64.168,0 99.422,39.208 99.422,91.572 0,68.897 -30.49,127.046 -75.755,127.046 -24.997,0 -43.709,-20.674 -37.712,-46.029 7.181,-30.27 21.093,-62.939 21.093,-84.789 0,-19.559 -10.499,-35.872 -32.226,-35.872 -25.554,0 -46.082,26.435 -46.082,61.849 0,22.555 7.622,37.81 7.622,37.81 0,0 -26.151,110.802 -30.735,130.207 -9.129,38.646 -1.372,86.02 -0.717,90.805 0.385,2.834 4.029,3.508 5.679,1.367 2.357,-3.076 32.791,-40.649 43.139,-78.194 2.927,-10.631 16.807,-65.681 16.807,-65.681 8.301,15.836 32.566,29.784 58.369,29.784 76.814,0 128.928,-70.028 128.928,-163.763 0,-70.877 -60.033,-136.887 -151.276,-136.887 z"
    style="fill:#ffffff"/>
</svg>
