<svg
  xmlns="http://www.w3.org/2000/svg"
  width="512"
  height="512"
  viewBox="0 0 512 512">
  <path
    d="m 195.869,106 38.539,51.708 c -28.789,22.05 -46.433,38.355 -52.933,48.913 -6.501,10.56 -9.751,21.74 -9.751,33.54 -2e-4,12.423 7.584,26.243 22.752,41.46 15.168,15.218 22.752,31.522 22.752,48.913 C 217.228,380.845 192.464,406 142.936,406 117.862,406 98.438,397.926 84.663,381.776 70.887,365.628 64,343.889 64,316.559 64,230.845 107.956,160.659 195.869,106 z m 213.591,0 L 448,157.708 c -28.789,22.05 -46.433,38.355 -52.933,48.913 -6.501,10.56 -9.751,21.74 -9.751,33.54 -4.2e-4,12.423 7.584,26.243 22.752,41.46 15.168,15.218 22.752,31.522 22.752,48.913 -4.7e-4,50.311 -24.765,75.466 -74.293,75.466 -25.074,3.7e-4 -44.499,-8.074 -58.273,-24.224 C 284.479,365.628 277.591,343.889 277.591,316.559 277.591,230.845 321.547,160.659 409.461,106 z"
    style="fill:#ffffff"/>
</svg>
