<?xml version="1.0" encoding="UTF-8" standalone="no"?>
<svg
  xmlns="http://www.w3.org/2000/svg"
  version="1.1"
  width="512"
  height="512"
  viewBox="0 0 512 512">
  <g style="fill:#ffffff">
    <path
      d="m 348.7986,298.8929 c -62.31561,-39.59634 -122.69768,-39.90435 -184.44971,-0.60832 -3.80327,-13.61038 -2.11615,-29.20054 -4.92964,-41.44004 -2.20977,-9.19202 -5.64916,-19.30149 -11.85967,-26.01841 -6.37201,-6.89181 -7.12828,-12.765 -5.23594,-20.60396 18.1125,-74.94649 105.88608,-111.629905 172.87517,-72.12376 29.91536,17.64372 49.04588,43.05601 54.95232,77.2753 0.68498,3.97559 -0.92668,9.91146 -3.75014,12.61539 -9.00836,8.6145 -13.11937,18.82407 -14.075,30.78603 -1.03026,12.8244 -2.24541,25.6367 -3.52739,40.11777 z"/>
    <path
      d="m 255.52511,356.98001 c -24.11139,-0.007 -48.24952,-0.64463 -72.32749,0.28162 -10.99649,0.42132 -14.49268,-3.56417 -14.68425,-13.51854 -0.137,-6.96772 -0.65046,-14.15985 -2.55616,-20.81627 -3.34138,-11.66714 1.72749,-18.36315 11.29721,-23.91621 31.38446,-18.20805 65.46318,-21.79421 100.72476,-18.00454 22.0609,2.37281 43.0882,8.25588 61.41567,21.56651 5.40746,3.92388 8.08168,8.06227 6.97902,14.9695 -1.59495,10.01706 -2.59291,20.15403 -3.3191,30.27451 -0.50677,7.16133 -3.84815,9.38343 -10.92854,9.29323 -25.52925,-0.32341 -51.0663,-0.12541 -76.60112,-0.12981 z"/>
    <path
      d="m 344.63079,373.72719 c 4.07203,-37.29393 7.81437,-74.62308 12.33192,-111.86532 2.83683,-23.37388 23.52219,-41.42682 46.29369,-41.70843 22.06647,-0.27392 40.4073,15.42822 44.1864,37.83075 3.50288,20.76678 -9.7713,41.37074 -32.45481,47.95564 -8.59515,2.49602 -12.94562,6.93913 -16.01746,14.67798 -5.56674,14.02016 -12.03454,27.69049 -17.86413,41.61165 -1.88008,4.4882 -4.10878,9.30093 -4.15111,13.97834 -0.10692,13.22593 -1.13941,14.10266 -21.92167,13.72865 -12.08689,-0.21561 -11.1836,-8.11508 -10.40283,-16.20926 z"/>
    <path
      d="m 167.36923,373.72719 c -4.07202,-37.29393 -7.81436,-74.62309 -12.33191,-111.86533 -2.83683,-23.37389 -23.5222,-41.42683 -46.29371,-41.70844 -22.066471,-0.27392 -40.407303,15.42821 -44.186403,37.83076 -3.502879,20.76678 9.771308,41.37073 32.454818,47.95564 8.595145,2.49602 12.945625,6.93913 16.017465,14.67798 5.56674,14.02017 12.03454,27.6905 17.86414,41.61166 1.88008,4.4882 4.10878,9.30093 4.1511,13.97834 0.10693,13.22593 1.13941,14.10266 21.92168,13.72865 12.08688,-0.21561 11.18359,-8.11508 10.40282,-16.20926 z"/>
  </g>
</svg>
