<?xml version="1.0" encoding="UTF-8" standalone="no"?>
<svg
  xmlns="http://www.w3.org/2000/svg"
  version="1.1"
  width="512"
  height="512"
  viewbox="0 0 512 512">
  <g
    style="fill:#ffffff">
    <path
      d="m 152.3945,392 c -18.14203,0 -17.17095,-0.29156 -17.17095,-18.43359 L 107.2575,308.4392 C 83.228768,307.59342 64,287.90201 64,263.66846 c 0,-24.77331 20.076954,-44.85026 44.85026,-44.85026 24.73234,0 44.78278,20.01671 44.84784,44.73219 0,0.0217 0.005,0.0386 0.005,0.0578 l 11.94449,107.50519 c 0,18.14203 4.88912,20.88659 -13.25291,20.88659"/>
    <path
      d="m 354.19095,259.57483 c 0,0.0217 -0.005,0.041 -0.005,0.0578 l -5.26502,47.38758 c -22.25766,-18.18299 -58.52003,-31.78047 -92.93181,-31.78047 -34.23588,0 -70.34886,13.52037 -92.58965,31.52264 l -5.2337,-47.12975 c 0,-0.0169 -0.01,-0.0362 -0.01,-0.0578 -0.0361,-14.50592 -7.06742,-27.26004 -17.77818,-35.43347 C 146.54663,165.63579 195.84986,120 255.98916,120 c 60.23568,0 109.59674,45.79242 115.63284,104.43293 -10.50353,8.18548 -17.39264,20.79984 -17.43119,35.1419"/>
    <path
      d="m 404.74252,308.22715 -27.96605,65.1248 c 0,18.14444 0.96867,18.64805 -17.17095,18.64805 -18.14444,0 -13.2505,-2.9566 -13.2505,-21.09863 l 11.94208,-107.5052 c 0,-0.0193 0.005,-0.0361 0.005,-0.0578 0.0651,-24.71788 20.11068,-44.73219 44.84543,-44.73219 24.7709,0 44.85267,20.07696 44.85267,44.85026 0,24.23355 -19.22877,43.92256 -43.2575,44.77074"/>
    <path
      d="m 342.33186,360 -172.6324,0 -5.87947,-46.14904 c 21.26971,-20.57093 54.52488,-32.67686 92.01134,-32.67686 37.67681,0 71.09101,12.19027 92.34868,32.9877 L 342.33186,360 z"/>
  </g>
</svg>
