<svg
  xmlns="http://www.w3.org/2000/svg"
  width="512"
  height="512"
  viewBox="0 0 512 512">
  <path
    d="M 256 120 C 195.861 120 146.544 165.651 140.375 224.156 C 151.086 232.33 158.12 245.057 158.156 259.563 C 158.156 259.584 158.156 259.608 158.156 259.625 L 163.406 306.75 C 185.647 288.748 221.764 275.25 256 275.25 C 290.412 275.25 326.649 288.848 348.906 307.031 L 354.188 259.625 C 354.188 259.608 354.188 259.584 354.188 259.563 C 354.226 245.22 361.121 232.623 371.625 224.438 C 365.589 165.797 316.236 120 256 120 z M 403.156 218.594 C 378.421 218.594 358.378 238.626 358.313 263.344 C 358.313 263.365 358.313 263.387 358.313 263.406 L 346.344 370.906 C 346.344 389.048 341.449 392 359.594 392 C 377.733 392 376.781 391.488 376.781 373.344 L 404.75 308.219 C 428.779 307.371 448 287.702 448 263.469 C 448 238.695 427.927 218.594 403.156 218.594 z M 108.844 218.813 C 84.07 218.813 64 238.883 64 263.656 C 64 287.89 83.221 307.592 107.25 308.438 L 135.219 373.563 C 135.219 391.705 134.264 392 152.406 392 C 170.548 392 165.656 389.267 165.656 371.125 L 153.688 263.594 C 153.688 263.575 153.688 263.584 153.688 263.563 C 153.622 238.847 133.576 218.813 108.844 218.813 z M 255.844 281.188 C 218.357 281.188 185.082 293.273 163.813 313.844 L 169.688 360 L 342.344 360 L 348.188 314.156 C 326.93 293.359 293.521 281.188 255.844 281.188 z"
    style="fill:#ffffff"/>
</svg>
