<svg
  xmlns="http://www.w3.org/2000/svg"
  width="512"
  height="512"
  viewBox="0 0 512 512">
  <path
    d="M 256 64 C 149.961 64 64 149.961 64 256 C 64 362.039 149.961 448 256 448 C 318.816 448 374.565 417.823 409.594 371.188 L 358.406 332.813 C 335.054 363.903 297.877 384 256 384 C 185.308 384 128 326.692 128 256 C 128 185.308 185.308 128 256 128 C 295.419 128 330.676 145.822 354.156 173.844 L 304 224 L 448 224 L 448 80 L 399.5 128.5 C 364.334 88.949 313.088 64 256 64 z"
    style="fill:#ffffff"/>
</svg>
