<svg
  xmlns="http://www.w3.org/2000/svg"
  width="512"
  height="512"
  viewBox="0 0 512 512">
  <path
    d="m 205.62,340.844 c 11.329,34.944 -14.014,77.305 -50.95,81.389 -20.962,0.376 -12.877,-27.217 -4.531,-37.563 13.438,-19.82 34.852,-32.913 55.481,-43.827 z M 415.4,110.979 c -7.796,-29.354 -40.041,-42.358 -67.51,-45.65 -57.153,-7.278 -112.386,16.435 -161.057,43.971 -37.538,22.662 -75.108,52.501 -89.587,95.496 -9.365,26.827 9.41,52.597 28.186,69.907 21.065,20.005 46.993,33.951 69.249,52.301 -28.388,15.189 -58.785,31.476 -76.602,59.292 -10.28,18.234 -10.224,46.47 9.565,58.302 45.425,15.117 96.003,-22.369 101.178,-68.579 3.801,-14.32 -2.162,-32.873 -2.412,-43.826 26.496,-5.391 58.296,-3.409 78.51,16.51 13.039,12.21 14.108,35.904 -2.742,45.473 -15.285,12.084 14.808,3.301 16.4,-5.349 16.915,-22.196 0.949,-53.756 -21.086,-65.591 -25.025,-14.124 -56.055,-12.562 -82.924,-5.128 -23.657,-26.915 -60.276,-41.312 -77.224,-74.133 -12.668,-28.707 6.248,-58.923 27.559,-77.58 33.46,-28.876 73.463,-50.317 115.593,-63.48 30.638,-8.24 65.753,-13.649 95.094,1.674 19.707,10.726 15.888,37.587 5.743,53.834 -25.681,42.292 -76.795,65.14 -125.231,64.797 -16.06,0.482 -30.567,-9.279 -41.994,-17.528 -3.076,16.566 18.541,27.97 32.452,32.082 37.309,7.599 77.038,-1.121 110.24,-18.975 36.025,-21.374 68.629,-63.753 58.599,-107.82 z"
    style="fill:#ffffff"/>
</svg>
