<svg
  xmlns="http://www.w3.org/2000/svg"
  width="512"
  height="512"
  viewBox="0 0 512 512">
  <path
    d="M 208,64 C 189.111,64 170.358,67.74 152.906,74.969 135.455,82.197 119.544,92.831 106.188,106.188 92.831,119.544 82.197,135.455 74.969,152.906 67.74,170.358 64,189.111 64,208 c 0,18.889 3.74,37.642 10.969,55.094 7.229,17.451 17.862,33.362 31.219,46.719 13.357,13.357 29.267,23.99 46.719,31.219 C 170.358,348.26 189.111,352 208,352 c 18.889,0 37.642,-3.74 55.094,-10.969 10.005,-4.144 19.511,-9.402 28.313,-15.656 L 414.063,448 448,414.063 325.375,291.406 c 6.254,-8.801 11.512,-18.308 15.656,-28.313 C 348.26,245.642 352,226.889 352,208 352,189.111 348.26,170.358 341.031,152.906 333.803,135.455 323.169,119.544 309.813,106.188 296.456,92.831 280.545,82.197 263.094,74.969 245.642,67.74 226.889,64 208,64 z m 0,48 c 12.527,0 25.177,2.519 36.75,7.313 11.573,4.794 22.267,11.955 31.125,20.813 8.858,8.858 16.019,19.552 20.813,31.125 4.794,11.573 7.313,24.223 7.313,36.75 0,12.527 -2.519,25.177 -7.313,36.75 -4.794,11.573 -11.955,22.267 -20.813,31.125 -8.858,8.858 -19.552,16.019 -31.125,20.813 C 233.177,301.481 220.527,304 208,304 c -12.527,0 -25.177,-2.519 -36.75,-7.313 -11.573,-4.794 -22.267,-11.955 -31.125,-20.813 -8.858,-8.858 -16.019,-19.552 -20.813,-31.125 C 114.519,233.177 112,220.527 112,208 c 0,-12.527 2.519,-25.177 7.313,-36.75 4.794,-11.573 11.955,-22.267 20.813,-31.125 8.858,-8.858 19.552,-16.019 31.125,-20.813 C 182.823,114.519 195.473,112 208,112 z"
    style="fill:#ffffff"/>
</svg>
