<svg
  xmlns="http://www.w3.org/2000/svg"
  width="512"
  height="512"
  viewBox="0 0 512 512">
  <path
    d="m 336,64 c -26.51,0 -48,21.49 -48,48 0,3.785 0.453,7.468 1.281,11 l -147.875,95.063 C 133.282,211.756 123.081,208 112,208 c -26.51,0 -48,21.49 -48,48 0,26.51 21.49,48 48,48 12.944,0 24.679,-5.139 33.313,-13.469 L 352.375,394.094 C 352.137,396.03 352,397.999 352,400 c 0,26.51 21.49,48 48,48 26.51,0 48,-21.49 48,-48 0,-26.51 -21.49,-48 -48,-48 -12.944,0 -24.679,5.139 -33.313,13.469 L 159.625,261.906 C 159.863,259.97 160,258.001 160,256 c 0,-3.785 -0.453,-7.468 -1.281,-11 l 147.875,-95.063 C 314.718,156.244 324.919,160 336,160 c 26.51,0 48,-21.49 48,-48 0,-26.51 -21.49,-48 -48,-48 z"
    style="fill:#ffffff"/>
</svg>
