<svg
  xmlns="http://www.w3.org/2000/svg"
  height="512"
  width="512"
  viewBox="0 0 512 512">
  <path
    d="m 233.12,64.011 c -0.44,0 -0.88,0 -1.32,0 -12.69,0.33 -24.4,8.47 -28.66,21.2 l -13.46,40.179 -38.84,-13 c -3.54,-1.19 -7.14,-1.7 -10.67,-1.61 -12.68,0.33 -24.39,8.47 -28.65,21.2 -5.45,16.27 3.32,33.88 19.59,39.33 l 38.83,13 -25.81,77.09 -38.83,-13.01 c -3.55,-1.19 -7.148,-1.7 -10.668,-1.61 -12.69,0.33 -24.4,8.47 -28.66,21.2 -5.45,16.27 3.33,33.88 19.6,39.33 l 38.828,13 -13.46,40.18 c -5.45,16.28 3.32,33.88 19.59,39.33 16.27,5.45 33.88,-3.32 39.32,-19.59 l 13.46,-40.18 80.08,26.81 -13.45,40.19 c -5.45,16.27 3.32,33.88 19.59,39.35 16.27,5.41 33.88,-3.36 39.33,-19.62 l 13.45,-40.18 38.84,13 c 16.28,5.45 33.88,-3.32 39.33,-19.59 5.45,-16.27 -3.33,-33.88 -19.6,-39.33 l -38.83,-13 25.81,-77.09 38.84,13.01 c 16.27,5.45 33.86,-3.32 39.32,-19.59 5.46,-16.27 -3.31,-33.88 -19.59,-39.33 l -38.83,-13 13.46,-40.18 c 5.45,-16.28 -3.33,-33.89 -19.6,-39.33 -3.54,-1.19 -7.14,-1.7 -10.66,-1.61 -12.69,0.33 -24.4,8.47 -28.66,21.2 l -13.46,40.18 -80.08,-26.82 13.46,-40.18 c 5.45,-16.269 -3.32,-33.879 -19.59,-39.319 -3.1,-1.04 -6.25,-1.56 -9.35,-1.62 z m -4.25,140.039 80.08,26.82 -25.82,77.09 -80.08,-26.83 25.82,-77.08 z"
    style="fill:#ffffff"/>
</svg>
