<?xml version="1.0" encoding="UTF-8" standalone="no"?>
<svg
  xmlns="http://www.w3.org/2000/svg"
  version="1.1"
  width="512"
  height="512"
  viewBox="0 0 512 512">
  <path
    d="m 21.4,276 c -1,0 -1.8,1 -1.9,2 l -3.5,27 3.5,26 c 0.1,1 0.9,2 1.9,2 1,0 1.8,-1 2,-2 l 0,0 0,0 0,0 4.1,-26 -4.1,-27 c -0.2,-1 -1,-2 -2,-2 z m 19.8,-14 c -0.2,-1 -1,-2 -2,-2 -1,0 -1.9,1 -2,2 0,0 -4.7,43 -4.7,43 l 4.7,42 c 0.1,1 1,2 2,2 1,0 1.8,-1 2,-2 l 5.3,-42 z M 116,222 c -2,0 -4,2 -4,4 l -4,79 4,51 c 0,2 2,4 4,4 1,0 3,-2 3,-4 l 0,0 4,-51 -4,-79 c 0,-2 -2,-4 -3,-4 z m -39,28 c -1.4,0 -2.7,1 -2.8,2 l -4.2,53 4.2,51 c 0.1,1 1.4,3 2.8,3 1.5,0 2.7,-2 2.9,-3 l 4.8,-51 -4.8,-53 c -0.2,-1 -1.4,-2 -2.9,-2 z m 78,110 c 2,0 4,-2 4,-5 l 4,-50 -4,-106 c 0,-2 -2,-4 -4,-4 -3,0 -5,2 -5,4 0,0 -3,106 -3,106 l 3,50 c 0,3 2,5 5,5 z m 80,0 c 3,0 6,-3 6,-6 l 0,0 0,0 2,-49 -2,-122 c 0,-3 -3,-6 -6,-6 -4,0 -6,3 -6,6 l -3,122 c 0,0 3,49 3,49 0,3 2,6 6,6 z m -41,0 c 3,0 6,-2 6,-5 l 0,0 3,-50 -3,-106 c 0,-3 -3,-6 -6,-6 -3,0 -5,3 -5,6 l -3,106 3,50 c 0,3 2,5 5,5 z m -97.8,-1 c 1.7,0 3.1,-1 3.2,-3 l 4.6,-51 -4.6,-49 c -0.1,-2 -1.5,-3 -3.2,-3 -1.7,0 -3.1,1 -3.2,3 l -4,49 4,51 c 0.1,2 1.5,3 3.2,3 z M 58,357 c 1.3,0 2.3,-1 2.4,-3 l 5.1,-49 -5.1,-51 c -0.1,-2 -1.1,-3 -2.4,-3 -1.2,0 -2.2,1 -2.4,3 0,0 -4.5,51 -4.5,51 l 4.5,49 c 0.2,2 1.2,3 2.4,3 z M 214,197 c -3,0 -5,2 -5,6 l -3,102 3,49 c 0,4 2,6 5,6 4,0 6,-2 6,-6 l 0,0 3,-49 -3,-102 c 0,-4 -2,-6 -6,-6 z m -79,163 c 2,0 4,-2 4,-4 l 4,-51 -4,-97 c 0,-3 -2,-4 -4,-4 -2,0 -4,1 -4,4 0,0 -4,97 -4,97 l 4,51 c 0,2 2,4 4,4 z m 44,-5 0,0 4,-50 -4,-109 c 0,-3 -2,-5 -5,-5 -2,0 -4,2 -4,5 l -3,109 3,50 c 0,3 2,5 4,5 3,0 5,-2 5,-5 z M 437,242 c -8,0 -16,2 -23,5 -5,-53 -49,-95 -104,-95 -13,0 -26,2 -37,7 -5,2 -6,3 -6,7 l 0,187 c 0,4 3,7 6,7 0,0 163,0 164,0 33,0 59,-26 59,-59 0,-32 -26,-59 -59,-59 z M 255,166 c -4,0 -7,3 -7,6 l -2,133 2,48 c 0,4 3,7 7,7 3,0 6,-3 6,-7 l 0,0 3,-48 -3,-133 c 0,-3 -3,-6 -6,-6 z"
    style="fill:#ffffff"/>
</svg>
