<svg
  xmlns="http://www.w3.org/2000/svg"
  width="512"
  height="512"
  viewBox="0 0 512 512">
  <path
    d="m 68.349,272.356 c -0.801,0 -1.437,0.619 -1.54,1.503 L 64,295.189 l 2.808,20.962 c 0.103,0.884 0.739,1.499 1.54,1.499 0.776,0 1.408,-0.611 1.532,-1.491 l 0,0 0,-0.004 0,0.004 3.329,-20.971 -3.329,-21.334 c -0.12,-0.88 -0.76,-1.499 -1.532,-1.499 z m 15.792,-11.654 c -0.132,-0.917 -0.789,-1.549 -1.598,-1.549 -0.814,0 -1.487,0.652 -1.598,1.549 0,0.008 -3.775,34.487 -3.775,34.487 l 3.775,33.723 c 0.107,0.904 0.781,1.557 1.598,1.557 0.805,0 1.462,-0.636 1.594,-1.549 l 4.295,-33.731 z M 143.625,228.891 c -1.549,0 -2.829,1.268 -2.903,2.878 l -3.006,63.449 3.006,41.004 c 0.079,1.602 1.355,2.866 2.903,2.866 1.54,0 2.816,-1.268 2.907,-2.874 l 0,0.012 3.399,-41.008 -3.399,-63.449 c -0.091,-1.611 -1.367,-2.878 -2.907,-2.878 z m -30.787,22.053 c -1.189,0 -2.16,0.95 -2.255,2.218 l -3.386,42.04 3.386,40.673 c 0.091,1.26 1.065,2.209 2.255,2.209 1.177,0 2.147,-0.95 2.251,-2.209 l 3.849,-40.673 -3.849,-42.049 c -0.103,-1.26 -1.074,-2.209 -2.251,-2.209 z m 62.074,88.14 c 1.92,0 3.481,-1.549 3.56,-3.531 l 2.949,-40.314 -2.944,-84.473 c -0.079,-1.982 -1.639,-3.531 -3.56,-3.531 -1.937,0 -3.502,1.553 -3.564,3.535 0,0.004 -2.614,84.465 -2.614,84.465 l 2.614,40.331 c 0.062,1.966 1.627,3.519 3.56,3.519 z m 64.052,0.19 c 2.643,0 4.823,-2.176 4.873,-4.852 l 0,0.029 0,-0.029 2.057,-39.158 -2.057,-97.56 c -0.045,-2.672 -2.23,-4.852 -4.873,-4.852 -2.647,0 -4.832,2.176 -4.873,4.857 l -1.838,97.523 c 0,0.062 1.838,39.216 1.838,39.216 0.041,2.651 2.23,4.828 4.873,4.828 z m -32.269,-0.153 c 2.3,0 4.154,-1.846 4.216,-4.2 l 0,0.029 2.503,-39.703 -2.507,-85.084 c -0.062,-2.354 -1.916,-4.196 -4.216,-4.196 -2.317,0 -4.171,1.842 -4.221,4.196 l -2.226,85.088 2.23,39.695 c 0.05,2.329 1.904,4.175 4.221,4.175 z m -78.522,-0.372 c 1.367,0 2.474,-1.094 2.577,-2.536 l 3.626,-41.012 -3.626,-39.013 c -0.099,-1.441 -1.206,-2.527 -2.577,-2.527 -1.388,0 -2.494,1.094 -2.581,2.544 l -3.192,38.997 3.192,41.008 c 0.091,1.445 1.193,2.54 2.581,2.54 z m -30.543,-2.247 c 0.999,0 1.809,-0.789 1.924,-1.879 l 4.072,-39.43 -4.068,-40.917 c -0.12,-1.094 -0.929,-1.883 -1.929,-1.883 -1.012,0 -1.821,0.793 -1.924,1.883 0,0.004 -3.585,40.917 -3.585,40.917 l 3.585,39.422 c 0.099,1.094 0.909,1.887 1.924,1.887 z M 222.766,208.746 c -2.498,0 -4.501,1.986 -4.551,4.53 l -2.032,81.979 2.032,39.447 c 0.05,2.511 2.048,4.497 4.551,4.497 2.494,0 4.485,-1.982 4.543,-4.526 l 0,0.033 2.28,-39.447 -2.28,-81.991 c -0.058,-2.536 -2.048,-4.522 -4.543,-4.522 z m -63.556,130.42 c 1.726,0 3.151,-1.408 3.234,-3.205 l 3.172,-40.731 -3.172,-77.96 c -0.087,-1.801 -1.507,-3.205 -3.234,-3.205 -1.743,0 -3.163,1.408 -3.238,3.205 0,0.004 -2.808,77.96 -2.808,77.96 l 2.812,40.748 c 0.07,1.78 1.491,3.188 3.234,3.188 z m 35.416,-3.845 0,-0.021 2.726,-40.058 -2.726,-87.318 c -0.066,-2.168 -1.776,-3.87 -3.886,-3.87 -2.123,0 -3.832,1.697 -3.89,3.87 l -2.42,87.314 2.424,40.079 c 0.058,2.147 1.768,3.845 3.886,3.845 2.114,0 3.816,-1.697 3.886,-3.857 z M 400.773,244.91 c -6.471,0 -12.645,1.309 -18.27,3.667 -3.758,-42.569 -39.455,-75.962 -82.999,-75.962 -10.655,0 -21.041,2.098 -30.213,5.645 -3.564,1.379 -4.514,2.8 -4.547,5.554 l 0,149.908 c 0.037,2.891 2.28,5.298 5.1,5.583 0.12,0.012 130.081,0.079 130.924,0.079 26.083,0 47.231,-21.148 47.231,-47.235 0,-26.087 -21.144,-47.24 -47.227,-47.24 z M 255.089,183.683 c -2.837,0 -5.166,2.329 -5.208,5.191 l -2.131,106.402 2.135,38.617 c 0.037,2.821 2.366,5.146 5.203,5.146 2.829,0 5.158,-2.325 5.199,-5.187 l 0,0.045 2.317,-38.621 -2.317,-106.41 c -0.041,-2.854 -2.37,-5.183 -5.199,-5.183 z"
     style="fill:#ffffff"/>
</svg>
