<?xml version="1.0" encoding="UTF-8" standalone="no"?>
<svg
  xmlns="http://www.w3.org/2000/svg"
  version="1.1"
  width="512"
  height="512"
  viewBox="0 0 512 512">
  <path
    d="m 68.34857,272.35567 c -0.80116,0 -1.43714,0.61946 -1.54038,1.50321 L 64,295.18877 l 2.8082,20.96235 c 0.10324,0.88376 0.73922,1.49908 1.54038,1.49908 0.77638,0 1.40823,-0.61119 1.53212,-1.49082 l 0,0 0,-0.004 0,0.004 3.32854,-20.97061 -3.32854,-21.33402 c -0.11976,-0.87962 -0.75986,-1.49908 -1.53212,-1.49908 z m 15.79197,-11.65401 c -0.13215,-0.91679 -0.78877,-1.54864 -1.59819,-1.54864 -0.81355,0 -1.48669,0.6525 -1.59819,1.54864 0,0.008 -3.77454,34.48711 -3.77454,34.48711 l 3.77454,33.72312 c 0.10737,0.9044 0.78051,1.5569 1.59819,1.5569 0.80529,0 1.46191,-0.63598 1.59406,-1.54864 l 4.29489,-33.73138 z M 143.62471,228.8906 c -1.54863,0 -2.82884,1.26781 -2.90317,2.87839 l -3.00642,63.44869 3.00642,41.00378 c 0.0785,1.60232 1.35454,2.86601 2.90317,2.86601 1.54038,0 2.81646,-1.26782 2.90731,-2.87427 l 0,0.0124 3.39874,-41.0079 -3.39874,-63.44869 c -0.0908,-1.61058 -1.36693,-2.87839 -2.90731,-2.87839 z m -30.7869,22.05258 c -1.18935,0 -2.15983,0.94984 -2.25481,2.21765 l -3.38636,42.04033 3.38636,40.6734 c 0.0909,1.25956 1.06546,2.20939 2.25481,2.20939 1.17697,0 2.14745,-0.94983 2.25069,-2.20939 l 3.84888,-40.6734 -3.84888,-42.04859 c -0.10324,-1.25955 -1.07372,-2.20939 -2.25069,-2.20939 z m 62.0735,88.14016 c 1.92031,0 3.48133,-1.54864 3.5598,-3.5309 l 2.9486,-40.31411 -2.94447,-84.47298 c -0.0785,-1.98226 -1.63949,-3.53089 -3.5598,-3.53089 -1.93683,0 -3.50199,1.55276 -3.56393,3.53502 0,0.004 -2.6141,84.46472 -2.6141,84.46472 l 2.6141,40.33063 c 0.0619,1.96574 1.6271,3.51851 3.5598,3.51851 z m 64.05162,0.18996 c 2.64301,0 4.82349,-2.17635 4.87304,-4.85239 l 0,0.0289 0,-0.0289 2.05659,-39.1578 -2.05659,-97.56 c -0.0454,-2.67191 -2.23003,-4.85239 -4.87304,-4.85239 -2.64714,0 -4.83175,2.17635 -4.87304,4.85652 l -1.83772,97.52283 c 0,0.0619 1.83772,39.21561 1.83772,39.21561 0.0413,2.65127 2.23003,4.82762 4.87304,4.82762 z m -32.26946,-0.1528 c 2.30024,0 4.15447,-1.84597 4.21642,-4.1999 l 0,0.0289 2.5026,-39.70292 -2.50673,-85.08418 c -0.0619,-2.35392 -1.91618,-4.19577 -4.21642,-4.19577 -2.31676,0 -4.171,1.84185 -4.22055,4.19577 l -2.22591,85.08831 2.23003,39.69466 c 0.0496,2.32915 1.9038,4.17512 4.22056,4.17512 z m -78.52209,-0.37167 c 1.36693,0 2.47369,-1.09437 2.57693,-2.53563 l 3.62588,-41.01204 -3.62588,-39.01326 c -0.0991,-1.44126 -1.20587,-2.52737 -2.57693,-2.52737 -1.38758,0 -2.49434,1.09437 -2.58106,2.54389 l -3.19226,38.99674 3.19226,41.00791 c 0.0908,1.44539 1.19348,2.53976 2.58106,2.53976 z m -30.54325,-2.24656 c 0.99939,0 1.80881,-0.78877 1.92444,-1.87901 l 4.07189,-39.43036 -4.06776,-40.91705 c -0.11976,-1.09437 -0.92918,-1.88314 -1.92857,-1.88314 -1.01178,0 -1.8212,0.7929 -1.92444,1.88314 0,0.004 -3.58458,40.91705 -3.58458,40.91705 l 3.58458,39.4221 c 0.09911,1.09437 0.90853,1.88727 1.92444,1.88727 z M 222.76625,208.74593 c -2.49846,0 -4.50137,1.98638 -4.55092,4.53028 l -2.03182,81.97864 2.03182,39.44688 c 0.0496,2.51085 2.04833,4.49724 4.55092,4.49724 2.49434,0 4.48486,-1.98226 4.54267,-4.52615 l 0,0.033 2.27959,-39.44688 -2.27959,-81.99103 c -0.0578,-2.53564 -2.04833,-4.52202 -4.54267,-4.52202 z m -63.55605,130.42 c 1.72621,0 3.15096,-1.40823 3.23355,-3.20465 l 3.17161,-40.73121 -3.17161,-77.96045 c -0.0867,-1.80054 -1.50734,-3.20464 -3.23355,-3.20464 -1.74274,0 -3.16335,1.40823 -3.23769,3.20464 0,0.004 -2.80819,77.96045 -2.80819,77.96045 l 2.81232,40.74773 c 0.0702,1.7799 1.49082,3.18813 3.23356,3.18813 z m 35.41629,-3.84475 0,-0.0207 2.7256,-40.05807 -2.7256,-87.31834 c -0.0661,-2.16809 -1.77577,-3.86953 -3.88605,-3.86953 -2.12266,0 -3.83236,1.69731 -3.89017,3.86953 l -2.42001,87.31421 2.42414,40.07872 c 0.0578,2.14744 1.76751,3.84475 3.88604,3.84475 2.11441,0 3.81584,-1.69731 3.88605,-3.85714 z M 400.77277,244.9097 c -6.47124,0 -12.64514,1.30911 -18.26979,3.66717 -3.75802,-42.56893 -39.45513,-75.96167 -82.99867,-75.96167 -10.65462,0 -21.04082,2.09788 -30.21288,5.64529 -3.56393,1.37932 -4.51376,2.79994 -4.54679,5.55445 l 0,149.90805 c 0.0372,2.89079 2.27959,5.2984 5.10017,5.58335 0.11976,0.0124 130.08137,0.0785 130.92383,0.0785 26.08317,0 47.23136,-21.14818 47.23136,-47.23549 0,-26.0873 -21.14406,-47.23961 -47.22723,-47.23961 z M 255.0894,183.68279 c -2.8371,0 -5.16625,2.32915 -5.20755,5.19103 l -2.13092,106.40168 2.13505,38.61681 c 0.0372,2.82058 2.36632,5.1456 5.20342,5.1456 2.82884,0 5.15799,-2.32502 5.19929,-5.1869 l 0,0.0454 2.31676,-38.62093 -2.31676,-106.40994 c -0.0413,-2.85362 -2.37045,-5.18277 -5.19929,-5.18277 z"
     style="fill:#ffffff"/>
</svg>
