<?xml version="1.0" encoding="UTF-8" standalone="no"?>
<svg
  xmlns="http://www.w3.org/2000/svg"
  version="1.1"
  width="512"
  height="512"
  viewBox="0 0 512 512">
  <path
    d="M 256,64 A 192,192 0 0 0 64,256 192,192 0 0 0 256,448 192,192 0 0 0 448,256 192,192 0 0 0 256,64 Z m 0,64 a 128,128 0 0 1 64.90625,17.83984 L 145.84766,320.89844 A 128,128 0 0 1 128,256 128,128 0 0 1 256,128 Z m 110.15234,63.10156 A 128,128 0 0 1 384,256 128,128 0 0 1 256,384 128,128 0 0 1 191.09375,366.16016 l 175.05859,-175.0586 z"
    style="fill:#ffffff"/>
</svg>
