<svg
  xmlns="http://www.w3.org/2000/svg"
  width="512"
  height="512"
  viewBox="0 0 512 512">
  <path
    d="m 448,136.906 c -14.127,6.267 -29.313,10.5 -45.247,12.405 16.262,-9.75 28.756,-25.188 34.639,-43.586 -15.224,9.03 -32.083,15.585 -50.029,19.117 -14.369,-15.312 -34.844,-24.877 -57.504,-24.877 -43.507,0 -78.783,35.272 -78.783,78.78 0,6.175 0.697,12.188 2.04,17.954 -65.475,-3.285 -123.527,-34.65 -162.382,-82.314 -6.782,11.635 -10.667,25.169 -10.667,39.608 0,27.333 13.908,51.446 35.048,65.574 -12.914,-0.409 -25.063,-3.953 -35.684,-9.853 -0.007,0.328 -0.007,0.657 -0.007,0.991 0,38.17 27.157,70.01 63.196,77.25 -6.61,1.8 -13.57,2.764 -20.755,2.764 -5.077,0 -10.012,-0.495 -14.823,-1.414 10.025,31.298 39.12,54.077 73.594,54.71 -26.962,21.132 -60.931,33.727 -97.843,33.727 -6.359,0 -12.631,-0.374 -18.794,-1.102 34.865,22.352 76.276,35.397 120.766,35.397 144.909,0 224.153,-120.046 224.153,-224.154 0,-3.416 -0.079,-6.812 -0.23,-10.191 15.395,-11.109 28.75,-24.983 39.312,-40.783"
    style="fill:#ffffff"/>
</svg>
