<?xml version="1.0" encoding="UTF-8" standalone="no"?>
<svg
  xmlns="http://www.w3.org/2000/svg"
  version="1.1"
  width="512"
  height="512"
  viewBox="0 0 512 512">
  <path
    d="m 447.99983,136.90624 c -14.12738,6.26687 -29.31263,10.50047 -45.24668,12.40511 16.26238,-9.74975 28.75579,-25.18848 34.6387,-43.58592 -15.22369,9.02976 -32.08323,15.58464 -50.02948,19.11744 -14.36924,-15.312 -34.84415,-24.87744 -57.50403,-24.87744 -43.50715,0 -78.78295,35.27233 -78.78295,78.77953 0,6.17472 0.69658,12.18816 2.04,17.95392 -65.47507,-3.28512 -123.52666,-34.65025 -162.38189,-82.31425 -6.78221,11.6352 -10.6672,25.16928 -10.6672,39.60769 0,27.33312 13.90796,51.4464 35.04832,65.57376 -12.9143,-0.40896 -25.06272,-3.95328 -35.68357,-9.85344 -0.0073,0.32832 -0.0073,0.65664 -0.0073,0.99072 0,38.17018 27.15668,70.00992 63.19584,77.24968 -6.60979,1.8 -13.56978,2.76384 -20.75481,2.76384 -5.07668,0 -10.01185,-0.495 -14.82298,-1.4139 10.02528,31.29753 39.12,54.07662 73.59438,54.70962 -26.96237,21.13196 -60.9314,33.72671 -97.84268,33.72671 -6.35925,0 -12.63074,-0.37416 -18.7935,-1.10167 34.86451,22.3522 76.27584,35.39693 120.76571,35.39693 144.90857,0 224.15267,-120.04568 224.15267,-224.15425 0,-3.41569 -0.0788,-6.81216 -0.2304,-10.19137 15.3946,-11.10911 28.7501,-24.98303 39.31202,-40.78272"
    style="fill:#ffffff"/>
</svg>
