<?xml version="1.0" encoding="UTF-8" standalone="no"?>
<svg
  xmlns="http://www.w3.org/2000/svg"
  version="1.1"
  width="512"
  height="512"
  viewBox="0 0 512 512">
  <path
    d="M 70.8125 81.15625 L 64 88.53125 L 64 115.21875 L 70.25 121.46875 L 87.3125 121.46875 L 87.3125 424.96875 L 97.5 430.84375 L 132.6875 430.84375 L 260.28125 300 L 259.0625 303.375 A 1.3858554 1.3858541 0 0 0 259.375 304.8125 L 263.96875 309.375 A 1.3858554 1.3858541 0 0 0 264.9375 309.75 L 283.375 309.75 A 1.3858554 1.3858541 0 0 0 284.375 309.375 L 289.1875 304.53125 A 1.3858554 1.3858541 0 0 0 289.53125 303.9375 L 294.65625 286.3125 A 1.3858554 1.3858541 0 0 0 294.3125 284.96875 L 290.34375 281 A 1.3858554 1.3858541 0 0 0 289.34375 280.59375 L 279.1875 280.59375 L 442.09375 113.5 L 442.09375 88.53125 L 435.28125 81.71875 L 298.46875 81.71875 L 291.65625 87.96875 L 291.65625 114.65625 L 299.03125 122.59375 L 320.03125 122.59375 L 192.875 248.0625 L 192.875 122.59375 L 207.625 122.59375 L 214.15625 114.65625 L 214.15625 89.375 L 205.90625 81.15625 L 70.8125 81.15625 z M 238.375 327.71875 A 1.3858554 1.3858541 0 0 0 238.25 327.75 A 1.3858554 1.3858541 0 0 0 237.1875 328.75 L 234.90625 337.8125 A 1.3858554 1.3858541 0 0 0 236.25 339.53125 L 247.09375 339.53125 L 220.1875 416.34375 A 1.3858554 1.3858541 0 0 0 221.5 418.1875 L 260.65625 418.1875 A 1.3858554 1.3858541 0 0 0 262 417.21875 L 264.5625 408.96875 A 1.3858554 1.3858541 0 0 0 263.21875 407.1875 L 254.375 407.1875 L 281 329.5625 A 1.3858554 1.3858541 0 0 0 279.6875 327.75 L 238.53125 327.75 A 1.3858554 1.3858541 0 0 0 238.375 327.71875 z M 363 328 A 1.3858554 1.3858541 0 0 0 362.875 328.03125 A 1.3858554 1.3858541 0 0 0 362.09375 328.46875 L 353.9375 337.6875 L 340.96875 337.6875 L 332.34375 328.71875 A 1.3858554 1.3858541 0 0 0 331.34375 328.3125 L 300.40625 328.3125 A 1.3858554 1.3858541 0 0 0 299.125 329.21875 L 296.28125 337.71875 A 1.3858554 1.3858541 0 0 0 297.5625 339.53125 L 305.84375 339.53125 L 280.0625 415.5 A 1.3858554 1.3858541 0 0 0 281.375 417.34375 L 314.3125 417.34375 A 1.3858554 1.3858541 0 0 0 315.625 416.4375 L 318.15625 409 A 1.3858554 1.3858541 0 0 0 316.84375 407.1875 L 311.09375 407.1875 L 327.53125 355.4375 L 357.28125 355.4375 L 338.53125 415.53125 A 1.3858554 1.3858541 0 0 0 339.84375 417.34375 L 371.65625 417.34375 A 1.3858554 1.3858541 0 0 0 372.90625 416.5 L 375.75 409.6875 A 1.3858554 1.3858541 0 0 0 374.5 407.78125 L 368.71875 407.78125 L 385.4375 355.15625 L 413.75 355.15625 L 394.71875 415.53125 A 1.3858554 1.3858541 0 0 0 396.0625 417.34375 L 430.96875 417.34375 A 1.3858554 1.3858541 0 0 0 432.28125 416.46875 L 435.125 409.0625 A 1.3858554 1.3858541 0 0 0 433.8125 407.1875 L 426.90625 407.1875 L 447.9375 338.875 A 1.3858554 1.3858541 0 0 0 447.71875 337.59375 L 441.1875 328.8125 A 1.3858554 1.3858541 0 0 0 440.0625 328.3125 L 415.09375 328.3125 A 1.3858554 1.3858541 0 0 0 414.0625 328.71875 L 406.21875 337.375 L 392.4375 337.375 L 384.28125 328.4375 A 1.3858554 1.3858541 0 0 0 383.28125 328.03125 L 363.15625 328.03125 A 1.3858554 1.3858541 0 0 0 363 328 z"
    style="fill:#ffffff"/>
</svg>
