<?xml version="1.0" encoding="UTF-8" standalone="no"?>
<svg
  xmlns="http://www.w3.org/2000/svg"
  version="1.1"
  width="512"
  height="512"
  viewBox="0 0 512 512">
  <path
    d="M 88.478082,64.000001 C 75.005865,64.000001 64,75.368501 64,89.284681 l 0,11.062089 c 0,13.91617 11.005865,25.28467 24.478082,25.28467 l 7.394424,0 0,296.97142 c 0,13.91618 1.15163,25.28468 14.623854,25.28468 18.0239,0.9916 19.99472,-3.86784 58.04546,-43.3341 L 439.84059,121.154 c 3.11592,-3.2186 5.29693,-6.97913 6.37448,-11.06209 1.22739,-3.0073 1.78493,-6.26612 1.78493,-9.74514 l 0,-11.062089 c 0,-13.91618 -10.75088,-25.28468 -24.2231,-25.28468 l -90.62296,0 c -13.47222,0 -24.2231,11.3685 -24.2231,25.28468 l 0,11.062089 c 0,13.91617 9.17808,25.28467 22.65032,25.28467 l 6.4795,0 c 0,0 -80.22812,84.97893 -138.46832,145.13837 0,-59.55677 0,-145.13837 0,-145.13837 l 7.12443,0 c 13.47224,0 24.47809,-11.3685 24.47809,-25.28467 l 0,-11.062089 c 0,-13.91618 -11.00585,-25.28468 -24.47809,-25.28468 l -118.238688,0 z"
    style="fill:#ffffff"/>
</svg>
