<?xml version="1.0" encoding="UTF-8" standalone="no"?>
<svg
  xmlns="http://www.w3.org/2000/svg"
  version="1.1"
  width="512"
  height="512"
  viewbox="0 0 512 512">
  <g
    style="fill:#ffffff">
    <path
      d="m 70.812215,81.1529 135.109085,0 8.23143,8.23143 0,25.262 -6.52837,7.94758 -14.75982,0 0,125.45844 127.1615,-125.45844 -21.00435,0 -7.37992,-7.94758 0,-26.68121 6.81223,-6.24454 136.81214,0 6.81223,6.81223 0,24.97814 -309.38845,317.33605 -35.196494,0 -10.18777,-5.88191 0,-303.50654 -17.061121,0 L 64,115.21401 64,88.53281 70.812215,81.1529 z"/>
    <path
      d="m 272.03163,280.60014 a 1.3858554,1.3858541 0 0 0 -0.63223,0.31612 l -5.97105,5.12807 a 1.3858554,1.3858541 0 0 0 -0.38636,0.5971 l -5.97104,16.7189 a 1.3858554,1.3858541 0 0 0 0.31611,1.44008 l 4.5661,4.56608 a 1.3858554,1.3858541 0 0 0 0.98346,0.38636 l 18.43999,0 a 1.3858554,1.3858541 0 0 0 0.98346,-0.38636 l 4.81196,-4.84707 a 1.3858554,1.3858541 0 0 0 0.35124,-0.59711 l 5.12807,-17.59699 a 1.3858554,1.3858541 0 0 0 -0.35124,-1.36983 l -3.96898,-3.96898 a 1.3858554,1.3858541 0 0 0 -0.98347,-0.38637 l -17.03503,0 a 1.3858554,1.3858541 0 0 0 -0.28099,0 z m -33.78908,47.13607 a 1.3858554,1.3858541 0 0 0 -1.05372,1.01859 l -2.28304,9.06193 a 1.3858554,1.3858541 0 0 0 1.3347,1.72106 l 10.85325,0 -26.90482,76.81564 a 1.3858554,1.3858541 0 0 0 1.29958,1.82643 l 39.16302,0 a 1.3858554,1.3858541 0 0 0 1.3347,-0.94834 l 2.56404,-8.25408 a 1.3858554,1.3858541 0 0 0 -1.3347,-1.79131 l -8.8512,0 26.62383,-77.62348 a 1.3858554,1.3858541 0 0 0 -1.29958,-1.82644 l -41.16507,0 a 1.3858554,1.3858541 0 0 0 -0.28099,0 z m 124.61918,0.28099 a 1.3858554,1.3858541 0 0 0 -0.77272,0.45661 l -8.14872,9.20242 -12.96068,0 -8.64045,-8.95655 a 1.3858554,1.3858541 0 0 0 -0.98346,-0.42149 l -30.94406,0 a 1.3858554,1.3858541 0 0 0 -1.29958,0.91322 l -2.84502,8.49995 a 1.3858554,1.3858541 0 0 0 1.29958,1.82643 l 8.28921,0 -25.78086,75.97267 a 1.3858554,1.3858541 0 0 0 1.29958,1.82643 l 32.94611,0 a 1.3858554,1.3858541 0 0 0 1.29958,-0.91321 l 2.52891,-7.41111 a 1.3858554,1.3858541 0 0 0 -1.29958,-1.82644 l -5.7603,0 16.43793,-51.73728 29.74985,0 -18.7561,60.09673 a 1.3858554,1.3858541 0 0 0 1.3347,1.79131 l 31.78702,0 a 1.3858554,1.3858541 0 0 0 1.26446,-0.84297 l 2.84503,-6.814 a 1.3858554,1.3858541 0 0 0 -1.26446,-1.89668 l -5.7603,0 16.71892,-52.61538 28.30977,0 -19.03709,60.37772 a 1.3858554,1.3858541 0 0 0 1.3347,1.79131 l 34.91304,0 a 1.3858554,1.3858541 0 0 0 1.29958,-0.87809 l 2.84503,-7.41111 a 1.3858554,1.3858541 0 0 0 -1.29958,-1.86156 l -6.91939,0 21.03915,-68.31569 a 1.3858554,1.3858541 0 0 0 -0.21074,-1.26445 l -6.53303,-8.78094 a 1.3858554,1.3858541 0 0 0 -1.12396,-0.52686 l -24.97301,0 a 1.3858554,1.3858541 0 0 0 -1.01859,0.42149 l -7.86772,8.64044 -13.76853,0 -8.14871,-8.92143 a 1.3858554,1.3858541 0 0 0 -1.01859,-0.42149 l -20.12593,0 a 1.3858554,1.3858541 0 0 0 -0.28099,0 z"/>
  </g>
</svg>
