<svg
  xmlns="http://www.w3.org/2000/svg"
  height="512"
  width="512"
  viewBox="0 0 512 512">
  <path
    d="m 447.835,166.843 c -4.028,46.406 -30.984,86.604 -56.437,124.123 -32.667,44.17 -66.393,90.493 -114.288,119.256 -19.44,11.283 -47.288,19.142 -65.691,1.799 C 182.127,384.882 176.233,343.446 165.665,306.939 154.324,270.61 149.119,231.646 130.174,198.16 119.295,173.253 95.972,192.022 82.068,202.614 76.045,194.852 70.023,187.091 64,179.33 c 30.938,-25.598 58.134,-56.139 92.713,-77.028 19.38,-13.487 49.286,-9.094 61.311,12.079 16.413,27.204 15.298,60.293 22.06,90.457 5.866,30.401 9.599,62.338 24.734,89.823 13.611,20.486 32.002,-6.686 40.239,-18.869 14.767,-23.451 32.869,-47.89 33.457,-76.703 2.147,-23.812 -26.082,-29.896 -43.777,-22.728 -10.669,5.564 -12.162,2.683 -7.112,-7.387 11.811,-35.196 38.048,-69.2 76.292,-76.56 25.367,-5.2 58.105,-4.321 73.35,20.161 9.998,16.083 11.284,35.805 10.566,54.267 z"
    style="fill:#ffffff"/>
</svg>
