<svg
  xmlns="http://www.w3.org/2000/svg"
  width="512"
  height="512"
  viewBox="0 0 512 512">
  <path
    d="m 256,128 c -76.435,0 -145.03,33.509 -191.938,86.625 l 30,26.5 C 133.641,196.301 191.502,168 256,168 c 64.498,0 122.359,28.301 161.938,73.125 l 30,-26.5 C 401.03,161.509 332.435,128 256,128 z m 0,64 c -57.329,0 -108.788,25.129 -143.969,64.969 l 30,26.469 C 169.882,251.899 210.616,232 256,232 c 45.384,0 86.118,19.899 113.969,51.438 l 30,-26.469 C 364.788,217.129 313.329,192 256,192 z m 0,64 c -38.22,0 -72.515,16.752 -95.969,43.313 l 30,26.469 C 206.156,307.522 229.725,296 256,296 c 26.275,0 49.844,11.522 65.969,29.781 l 30,-26.469 C 328.515,272.752 294.22,256 256,256 z m 0,64 c -19.106,0 -36.242,8.381 -47.969,21.656 L 256,384 303.969,341.656 C 292.242,328.381 275.106,320 256,320 z"
    style="fill:#ffffff"/>
</svg>
