<?xml version="1.0" encoding="UTF-8" standalone="no"?>
<svg
  xmlns="http://www.w3.org/2000/svg"
  version="1.1"
  width="512"
  height="512"
  viewBox="0 0 512 512">
  <path
    d="m 256,120 c -96,0 -136,24.221 -192,80 l 24,24 c 56,-55.779 96,-72 168,-72 72,0 112,16.221 168,72 l 24,-24 C 392,144.221 352,120 256,120 z m 0,64 c -72,0 -104,24 -144,64 l 24,24 c 40,-40 72,-56 120,-56 48,0 80,16 120,56 l 24,-24 C 360,208 328,184 256,184 z m 0,72 c -48,0 -72,16 -96,40 l 24,24 c 24,-24 48,-32 72,-32 24,0 48,8 72,32 l 24,-24 c -24,-24 -48,-40 -96,-40 z m 0,72 c -24,0 -40,8 -48,16 l 48,48 48,-48 c -8,-8 -24,-16 -48,-16 z"
    style="fill:#ffffff"/>
</svg>
