<?xml version="1.0" encoding="UTF-8" standalone="no"?>
<svg
  xmlns="http://www.w3.org/2000/svg"
  version="1.1"
  width="512"
  height="512"
  viewBox="0 0 512 512">
  <path
    d="m 216.35639,206.19127 c -0.006,35.96457 -0.0118,71.92913 -0.0177,107.8937 34.58612,-18.04494 69.17225,-36.08988 103.75837,-54.13482 -34.5802,-17.91962 -69.1606,-35.83929 -103.74067,-53.75888 z m 227.80904,126.58486 c -2.80598,21.00313 -12.62269,43.97642 -34.55509,50.79271 -24.06931,6.41846 -49.4741,4.49543 -74.1555,6.20959 -73.64987,1.88669 -147.50997,2.20493 -221.00381,-3.39054 C 92.08964,384.59914 74.08834,366.27246 70.32825,344.51496 62.59125,306.89232 64.0468,268.13834 64.16501,229.90219 66.35404,200.83324 63.9879,168.86644 81.03134,143.579 c 17.12008,-20.52063 46.08821,-18.61055 70.26973,-20.31487 82.04166,-2.85471 164.34608,-3.79916 246.24774,2.46938 22.36323,1.78688 40.3613,20.11743 44.12641,41.87319 7.60478,36.67174 6.23891,74.45084 6.22999,111.73414 -0.41429,17.85567 -1.70526,35.69235 -3.73978,53.43529 z"
    style="fill:#ffffff"/>
</svg>
