<svg
  xmlns="http://www.w3.org/2000/svg"
  width="512"
  height="512"
  viewBox="0 0 512 512">
  <path
    d="m 216.356,206.191 c -0.006,35.965 -0.012,71.929 -0.018,107.894 34.586,-18.045 69.172,-36.09 103.758,-54.135 -34.58,-17.92 -69.161,-35.839 -103.741,-53.759 z m 227.809,126.585 c -2.806,21.003 -12.623,43.976 -34.555,50.793 -24.069,6.418 -49.474,4.495 -74.156,6.21 -73.65,1.887 -147.51,2.205 -221.004,-3.391 C 92.09,384.599 74.088,366.272 70.328,344.515 62.591,306.892 64.047,268.138 64.165,229.902 66.354,200.833 63.988,168.866 81.031,143.579 c 17.12,-20.521 46.088,-18.611 70.27,-20.315 82.042,-2.855 164.346,-3.799 246.248,2.469 22.363,1.787 40.361,20.117 44.126,41.873 7.605,36.672 6.239,74.451 6.23,111.734 -0.414,17.856 -1.705,35.692 -3.74,53.435 z"
    style="fill:#ffffff"/>
</svg>
